<?xml version="1.0" encoding="UTF-8"?>
<svg version="1.1" xmlns="http://www.w3.org/2000/svg" width="589" height="589">
<path d="M0 0 C1.59026001 0.00456207 1.59026001 0.00456207 3.21264648 0.00921631 C20.72478017 0.08311964 37.65340155 1.03932832 54.875 4.4375 C55.92300781 4.64117188 56.97101563 4.84484375 58.05078125 5.0546875 C82.75909736 10.03942873 107.2996419 18.23775285 129.875 29.4375 C130.71256836 29.84548828 131.55013672 30.25347656 132.41308594 30.67382812 C151.19602387 39.8790839 168.65379926 51.2336994 184.875 64.4375 C185.38901367 64.85531738 185.90302734 65.27313477 186.43261719 65.70361328 C204.59295305 80.54737461 220.6984781 96.75530086 234.875 115.4375 C235.32875 116.02901855 235.7825 116.62053711 236.25 117.22998047 C275.00248967 167.8862001 295.70384739 230.92513588 295.3125 294.5625 C295.30793793 296.15276001 295.30793793 296.15276001 295.30328369 297.77514648 C295.22938036 315.28728017 294.27317168 332.21590155 290.875 349.4375 C290.67132812 350.48550781 290.46765625 351.53351563 290.2578125 352.61328125 C285.27307127 377.32159736 277.07474715 401.8621419 265.875 424.4375 C265.46701172 425.27506836 265.05902344 426.11263672 264.63867188 426.97558594 C255.4334161 445.75852387 244.0788006 463.21629926 230.875 479.4375 C230.24827393 480.20852051 230.24827393 480.20852051 229.60888672 480.99511719 C214.76512539 499.15545305 198.55719914 515.2609781 179.875 529.4375 C179.28348145 529.89125 178.69196289 530.345 178.08251953 530.8125 C127.4262999 569.56498967 64.38736412 590.26634739 0.75 589.875 C-0.31017334 589.87195862 -1.37034668 589.86891724 -2.46264648 589.86578369 C-19.97478017 589.79188036 -36.90340155 588.83567168 -54.125 585.4375 C-55.17300781 585.23382812 -56.22101563 585.03015625 -57.30078125 584.8203125 C-82.00909736 579.83557127 -106.5496419 571.63724715 -129.125 560.4375 C-130.38135254 559.82551758 -130.38135254 559.82551758 -131.66308594 559.20117188 C-150.44602387 549.9959161 -167.90379926 538.6413006 -184.125 525.4375 C-184.63901367 525.01968262 -185.15302734 524.60186523 -185.68261719 524.17138672 C-203.84295305 509.32762539 -219.9484781 493.11969914 -234.125 474.4375 C-234.57875 473.84598145 -235.0325 473.25446289 -235.5 472.64501953 C-274.25248967 421.9887999 -294.95384739 358.94986412 -294.5625 295.3125 C-294.55945862 294.25232666 -294.55641724 293.19215332 -294.55328369 292.09985352 C-294.47938036 274.58771983 -293.52317168 257.65909845 -290.125 240.4375 C-289.81949219 238.86548828 -289.81949219 238.86548828 -289.5078125 237.26171875 C-284.52307127 212.55340264 -276.32474715 188.0128581 -265.125 165.4375 C-264.71701172 164.59993164 -264.30902344 163.76236328 -263.88867188 162.89941406 C-254.6834161 144.11647613 -243.3288006 126.65870074 -230.125 110.4375 C-229.70718262 109.92348633 -229.28936523 109.40947266 -228.85888672 108.87988281 C-214.01512539 90.71954695 -197.80719914 74.6140219 -179.125 60.4375 C-178.53348145 59.98375 -177.94196289 59.53 -177.33251953 59.0625 C-126.6762999 20.31001033 -63.63736412 -0.39134739 0 0 Z " fill="#FDFDFD" transform="translate(294.125,-0.4375)"/>
<path d="M0 0 C1.43676878 0.73060643 2.8743279 1.45965986 4.3125 2.1875 C9.94208393 5.318238 14.42516966 9.50646713 19 14 C19.72574219 14.70125 20.45148438 15.4025 21.19921875 16.125 C32.7515086 28.09537272 36.37066397 43.78880613 36.2109375 59.953125 C35.66642765 73.89526618 31.45596118 85.7096893 22 96 C19.00779732 94.63629701 16.70973471 93.05091917 14.25 90.875 C13.63640625 90.33617187 13.0228125 89.79734375 12.390625 89.2421875 C11.93171875 88.83226562 11.4728125 88.42234375 11 88 C11.64464424 84.57237941 13.00298675 82.17443861 14.875 79.25 C22.07909059 67.5195983 23.85522733 54.5122855 21.3515625 41.00390625 C17.94694133 26.78888537 10.92906151 16.65816307 -1.37109375 8.80078125 C-11.5153843 2.63448326 -19.79755514 0.64777021 -31.5625 0.75 C-32.90344727 0.73839844 -32.90344727 0.73839844 -34.27148438 0.7265625 C-48.49967488 0.76819583 -59.7714821 6.17898965 -70.05078125 15.94921875 C-80.78723186 27.6855162 -86.32999487 42.10453083 -86.15625 57.98046875 C-85.70728814 68.23371815 -85.70728814 68.23371815 -81 77 C-80.23816406 76.10539062 -79.47632813 75.21078125 -78.69140625 74.2890625 C-73.21778745 67.87454029 -67.7189242 61.49610747 -62.03515625 55.265625 C-59.44236329 52.37921441 -56.96460075 49.40117869 -54.5078125 46.3984375 C-53 45 -53 45 -50 45 C-48.85313619 46.07735692 -47.71866124 47.17018097 -46.640625 48.31640625 C-40.51216866 54.60536978 -33.6388838 60.25524196 -27 66 C-26.23381348 66.66370605 -26.23381348 66.66370605 -25.45214844 67.34082031 C-16.83411298 74.79996238 -16.83411298 74.79996238 -8 82 C5.63812041 92.81179941 18.41011106 104.09707317 29 118 C33.23648152 117.22892491 34.40391188 115.37491456 37 112 C37.66 112 38.32 112 39 112 C39.2475 111.38125 39.495 110.7625 39.75 110.125 C41.20628639 107.64931313 42.37812506 107.04874998 45 106 C45 105.34 45 104.68 45 104 C45.66 104 46.32 104 47 104 C47.3403125 103.0409375 47.3403125 103.0409375 47.6875 102.0625 C49 100 49 100 51.1796875 99.07421875 C55.29801178 98.9658418 57.45736518 101.19858633 60.4375 103.75 C64.47642642 107.11815065 68.21194572 109.71931991 73 112 C74.37310707 113.29233607 75.71034824 114.62437146 77 116 C78.67316312 117.92154693 78.67316312 117.92154693 81 119 C84.80023279 118.7964161 88.03581303 118.32383203 91.64491272 117.11167908 C94.97424039 116.16388989 97.53520074 115.75478242 101 116 C105.73214373 118.76579312 109.23166603 122.59587915 112.93359375 126.56640625 C114.02237016 127.68134147 115.11431396 128.79319152 116.20924377 129.90208435 C119.07521027 132.82131033 121.89670643 135.78002338 124.71063232 138.74932861 C127.57253585 141.75426157 130.47422176 144.72019988 133.37304688 147.68945312 C138.47478292 152.92487254 143.54039553 158.19306731 148.58128357 163.48707581 C151.02297203 166.02386678 153.50908692 168.51167168 156 171 C157.42883468 172.55138072 158.84555702 174.1140037 160.25 175.6875 C161.02730469 176.55375 161.80460937 177.42 162.60546875 178.3125 C164.17765842 180.07704566 165.74301 181.8477126 167.30078125 183.625 C171.37912149 188.24571019 175.51753278 192.44869132 180.23046875 196.41796875 C182.78026856 198.6975911 184.81870051 201.37125446 187 204 C188.10736179 204.97866115 189.23369509 205.93614385 190.375 206.875 C193.00777843 209.05287071 195.23091296 211.32880143 197.4375 213.9375 C200.37136395 217.39644027 203.54317346 220.26795724 207 223.19140625 C210.31015136 226.18476578 213.15129422 229.57265086 216 233 C215.67 233.66 215.34 234.32 215 235 C214.56768066 234.64808594 214.13536133 234.29617188 213.68994141 233.93359375 C208.79675355 229.95146158 203.90006776 225.97366339 199 222 C198.43667969 221.54302734 197.87335938 221.08605469 197.29296875 220.61523438 C195.90546081 219.49124538 194.51535635 218.37046364 193.125 217.25 C191.98417969 216.32960938 191.98417969 216.32960938 190.8203125 215.390625 C189.04533176 213.94449809 189.04533176 213.94449809 187 213 C187 212.34 187 211.68 187 211 C186.43796875 210.73703125 185.8759375 210.4740625 185.296875 210.203125 C180.92053627 207.9107571 177.0065703 204.87635868 173 202 C172.19820313 201.43152344 171.39640625 200.86304688 170.5703125 200.27734375 C169.84585937 199.75269531 169.12140625 199.22804688 168.375 198.6875 C167.39660156 197.98173828 167.39660156 197.98173828 166.3984375 197.26171875 C165.93695313 196.84535156 165.47546875 196.42898438 165 196 C165 195.34 165 194.68 165 194 C164.28199219 193.75507813 163.56398438 193.51015625 162.82421875 193.2578125 C159.65300456 191.84545985 157.45802155 190.11802713 154.8125 187.875 C150.22181148 184.01408125 145.55373124 180.28786464 140.80078125 176.62890625 C140.20652344 176.09136719 139.61226563 175.55382812 139 175 C139 174.34 139 173.68 139 173 C138.195625 172.731875 137.39125 172.46375 136.5625 172.1875 C135.386875 171.795625 134.21125 171.40375 133 171 C132.38125 170.85175781 131.7625 170.70351562 131.125 170.55078125 C125.40516674 169.02332578 120.82710047 166.17770053 115.9375 162.9375 C115.2576001 162.48955078 114.5777002 162.04160156 113.87719727 161.58007812 C112.21047416 160.44467221 110.59935269 159.2284883 109 158 C109 157.34 109 156.68 109 156 C108.2575 155.731875 107.515 155.46375 106.75 155.1875 C104.10938051 154.04723249 102.14447156 152.90619694 100 151 C100 150.34 100 149.68 100 149 C99.41605469 148.88462891 98.83210938 148.76925781 98.23046875 148.65039062 C95.83867658 147.95295911 94.33165572 147.03933004 92.3125 145.59375 C91.61946777 145.10140869 90.92643555 144.60906738 90.21240234 144.10180664 C89.11726318 143.30891235 89.11726318 143.30891235 88 142.5 C87.24541504 141.96044678 86.49083008 141.42089355 85.71337891 140.86499023 C80.32269284 136.99626576 74.99117995 133.05340527 69.7109375 129.03515625 C66.51200563 126.63365264 63.26173284 124.31542763 60 122 C64.42936981 133.75881123 68.92330298 145.48264542 73.74609375 157.0859375 C74.06243774 157.84780365 74.37878174 158.6096698 74.70471191 159.3946228 C76.27333427 163.1668504 77.85118452 166.93494068 79.43994141 170.69873047 C80.02391037 172.09596707 80.60773855 173.49326252 81.19140625 174.890625 C81.46077499 175.52092621 81.73014374 176.15122742 82.00767517 176.80062866 C83.55319681 180.51834405 84.49305943 184.00703244 85 188 C84.28972656 187.27941406 83.57945312 186.55882812 82.84765625 185.81640625 C80.12694314 183.09569314 77.29475977 180.51486493 74.4375 177.9375 C69.55085911 173.50259106 64.86487876 168.90488363 60.22924805 164.2097168 C56.89833478 160.85241571 53.4585428 157.70437941 49.859375 154.640625 C47.10840516 152.21329867 44.57432459 149.5844399 42.00390625 146.96875 C40.04943548 145.04856819 38.02686061 143.27132691 35.9375 141.5 C32.43975821 138.50488646 29.47517585 135.24433375 26.54296875 131.69921875 C24.91432017 129.76731446 24.91432017 129.76731446 22 128 C22 127.34 22 126.68 22 126 C21.46890625 125.79375 20.9378125 125.5875 20.390625 125.375 C16.99226564 123.42038808 14.48944072 120.77876283 11.75 118 C11.19570313 117.4534375 10.64140625 116.906875 10.0703125 116.34375 C6 112.2533867 6 112.2533867 6 110 C5.01 109.67 4.02 109.34 3 109 C3 108.01 3 107.02 3 106 C2.38125 105.87625 1.7625 105.7525 1.125 105.625 C-1 105 -1 105 -3 103 C-7.75570062 103 -10.53970599 105.84724274 -13.9375 108.8203125 C-16 110 -16 110 -18.32226562 109.85595703 C-21.77974834 108.75074784 -23.37731061 107.07777756 -25.90625 104.484375 C-26.81503906 103.56269531 -27.72382813 102.64101562 -28.66015625 101.69140625 C-29.60703319 100.71119087 -30.55364572 99.73072 -31.5 98.75 C-32.4456767 97.78423698 -33.39228319 96.81938348 -34.33984375 95.85546875 C-36.09251174 94.06799601 -37.84103303 92.27644085 -39.58398438 90.47949219 C-41.25680049 88.76272577 -42.94290205 87.05884228 -44.6394043 85.36547852 C-47.28556414 82.71384518 -49.80106239 79.96682429 -52.3125 77.1875 C-53.19550781 76.21167969 -54.07851563 75.23585938 -54.98828125 74.23046875 C-55.65214844 73.49441406 -56.31601562 72.75835937 -57 72 C-60.54050205 73.45405677 -62.23710611 75.24421299 -64.50390625 78.296875 C-65.48339233 79.60156738 -65.48339233 79.60156738 -66.48266602 80.93261719 C-67.51218384 82.32722168 -67.51218384 82.32722168 -68.5625 83.75 C-69.99916541 85.66729233 -71.43666792 87.58395767 -72.875 89.5 C-73.57753906 90.43972656 -74.28007812 91.37945312 -75.00390625 92.34765625 C-77.64233461 95.85351311 -80.33948349 99.30965841 -83.0625 102.75 C-83.50811279 103.31452881 -83.95372559 103.87905762 -84.4128418 104.46069336 C-85.6079613 105.97426945 -86.80394501 107.48716304 -88 109 C-91.9462972 114.02651983 -95.83693913 119.0941427 -99.7121582 124.17553711 C-104.42866947 130.35899216 -109.16876176 136.51131163 -114.0546875 142.5625 C-116.34372309 145.43068918 -118.58079641 148.33720329 -120.8125 151.25 C-131.33076859 164.95856714 -142.05285429 178.41706346 -153.5625 191.3125 C-154.36816406 192.21613281 -155.17382812 193.11976563 -156.00390625 194.05078125 C-158 196 -158 196 -160 196 C-158.31432589 190.28007212 -155.72982508 185.0915055 -153.125 179.75 C-142.64298294 158.03091271 -132.7306806 136.06350997 -123 114 C-128.74027599 118.12110955 -134.44289437 122.21573116 -139.8125 126.8125 C-144.23183224 130.55282025 -148.73234438 134.14676921 -153.3125 137.6875 C-157.62474236 141.03527636 -161.66613834 144.42488246 -165.43359375 148.390625 C-167.80185857 150.82385469 -170.3680028 153.01043223 -172.94140625 155.22265625 C-174.37979965 156.4645329 -175.80321057 157.72388113 -177.21484375 158.99609375 C-177.92769531 159.63675781 -178.64054687 160.27742187 -179.375 160.9375 C-180.02210938 161.52402344 -180.66921875 162.11054688 -181.3359375 162.71484375 C-183 164 -183 164 -185 164 C-185 159.05 -185 154.1 -185 149 C-190.86676123 153.94648496 -196.28113756 159.21389158 -201.60620117 164.73120117 C-203.03468756 166.19038478 -204.51356736 167.59988994 -206 169 C-206.66 169 -207.32 169 -208 169 C-208 169.66 -208 170.32 -208 171 C-208.66 171 -209.32 171 -210 171 C-210 171.66 -210 172.32 -210 173 C-211.22265625 174.234375 -211.22265625 174.234375 -213.0625 175.75 C-216.60004422 178.74813145 -220.00050523 181.85561129 -223.36962891 185.03930664 C-232.78496151 193.93524605 -242.59498373 202.01123631 -253.00390625 209.7265625 C-256.94587976 212.71773405 -260.74192509 215.86876953 -264.52734375 219.0546875 C-267 221 -267 221 -269.40625 222.4375 C-273.29483812 224.78002296 -276.74277171 227.65673923 -280.27148438 230.50390625 C-285.41976728 234.56231874 -285.41976728 234.56231874 -289 235 C-287.66603779 231.95415366 -286.33250084 230.19961002 -283.75390625 228.12109375 C-277.7839811 223.06464394 -272.33680903 217.48593892 -266.81811523 211.94848633 C-264.94170525 210.06671726 -263.06001031 208.19035262 -261.17773438 206.31445312 C-255.23674999 200.37656687 -249.44213657 194.40412529 -244 188 C-242.74751558 186.64941571 -241.4823551 185.31001733 -240.1875 184 C-239.62417969 183.4225 -239.06085938 182.845 -238.48046875 182.25 C-237 181 -237 181 -235 181 C-235 180.34 -235 179.68 -235 179 C-234.34 179 -233.68 179 -233 179 C-233 178.34 -233 177.68 -233 177 C-232.34 177 -231.68 177 -231 177 C-230.63745117 176.15066895 -230.63745117 176.15066895 -230.26757812 175.28417969 C-228.74904183 172.5477726 -226.92848119 170.66930662 -224.71875 168.453125 C-223.45611328 167.18662109 -223.45611328 167.18662109 -222.16796875 165.89453125 C-221.28753906 165.02183594 -220.40710938 164.14914063 -219.5 163.25 C-218.61957031 162.36183594 -217.73914063 161.47367188 -216.83203125 160.55859375 C-215.56939453 159.29982422 -215.56939453 159.29982422 -214.28125 158.015625 C-213.50845703 157.24508789 -212.73566406 156.47455078 -211.93945312 155.68066406 C-210 154 -210 154 -208 154 C-208 153.34 -208 152.68 -208 152 C-207.34 152 -206.68 152 -206 152 C-205.5968457 151.11006348 -205.5968457 151.11006348 -205.18554688 150.20214844 C-203.99709268 147.99459967 -202.79257611 146.53457118 -201.03125 144.765625 C-200.17466797 143.90517578 -200.17466797 143.90517578 -199.30078125 143.02734375 C-198.40939453 142.14755859 -198.40939453 142.14755859 -197.5 141.25 C-196.90574219 140.64800781 -196.31148438 140.04601562 -195.69921875 139.42578125 C-195.12816406 138.85730469 -194.55710937 138.28882813 -193.96875 137.703125 C-193.44732422 137.18395508 -192.92589844 136.66478516 -192.38867188 136.12988281 C-191 135 -191 135 -189 135 C-188.34 133.68 -187.68 132.36 -187 131 C-171.32994924 132.67005076 -171.32994924 132.67005076 -170 134 C-167.67182036 134.36760731 -165.3381615 134.70241581 -163 135 C-163 134.34 -163 133.68 -163 133 C-162.29875 132.443125 -161.5975 131.88625 -160.875 131.3125 C-158.56279492 129.45268287 -156.97518495 127.8780478 -155.125 125.625 C-152.59177744 122.57731836 -149.88377082 120.04727706 -146.80859375 117.5546875 C-143.32289665 114.55834312 -140.18992897 111.21358698 -137.0625 107.8515625 C-136.04180669 106.77590878 -135.02097196 105.70038924 -134 104.625 C-133.49210938 104.06683594 -132.98421875 103.50867188 -132.4609375 102.93359375 C-130.9375 101.3515625 -130.9375 101.3515625 -128 99 C-125.30859375 99.09375 -125.30859375 99.09375 -123 100 C-122.030625 100.28875 -121.06125 100.5775 -120.0625 100.875 C-117 102 -117 102 -114 103.625 C-110.5735825 105.19544136 -108.72951422 105.44320397 -105 105 C-102.5767353 103.12336068 -102.5767353 103.12336068 -100.5625 100.5 C-99.4178125 99.13875 -99.4178125 99.13875 -98.25 97.75 C-97.13625 96.38875 -97.13625 96.38875 -96 95 C-94.69311661 93.49510397 -93.38121271 91.99454108 -92.0625 90.5 C-91.51722656 89.8709375 -90.97195312 89.241875 -90.41015625 88.59375 C-89.31584855 87.3569701 -88.16771869 86.16771869 -87 85 C-87.31726282 82.47343423 -88.26110867 80.33395887 -89.19140625 77.9609375 C-95.51422288 61.42434017 -94.06765006 46.24758682 -87.78515625 29.82421875 C-84.04252523 21.46025204 -76.89829723 10.55096368 -68 7 C-68 6.34 -68 5.68 -68 5 C-51.3575387 -10.01343731 -18.62161389 -12.17567062 0 0 Z " fill="#105062" transform="translate(335,82)"/>
<path d="M0 0 C11.22 0 22.44 0 34 0 C34 1.98 34 3.96 34 6 C31.36 6.33 28.72 6.66 26 7 C24.01602247 11.16635282 23.69930972 14.67795628 23.5859375 19.26953125 C23.55032715 20.51581299 23.5147168 21.76209473 23.47802734 23.04614258 C23.44402832 24.61904053 23.4100293 26.19193848 23.375 27.8125 C23.189375 35.3303125 23.189375 35.3303125 23 43 C35.21 43 47.42 43 60 43 C59.87625 37.616875 59.7525 32.23375 59.625 26.6875 C59.59100098 24.99197998 59.55700195 23.29645996 59.52197266 21.54956055 C59.4867623 20.20359319 59.45084055 18.85764418 59.4140625 17.51171875 C59.40270264 16.81453735 59.39134277 16.11735596 59.37963867 15.39904785 C59.2700593 11.74134126 59.08374375 10.12561563 57 7 C55.03638136 6.42251197 55.03638136 6.42251197 52.875 6.3125 C50.956875 6.1578125 50.956875 6.1578125 49 6 C49 4.02 49 2.04 49 0 C60.22 0 71.44 0 83 0 C83 1.65 83 3.3 83 5 C80.98177083 5.35807292 78.96354167 5.71614583 76.9453125 6.07421875 C74.80838929 6.85240338 74.80838929 6.85240338 73.89558411 9.10852051 C72.81751176 12.58918085 72.73856029 15.54398171 72.7253418 19.18945312 C72.7176754 20.24651711 72.7176754 20.24651711 72.70985413 21.32493591 C72.69600567 23.64379475 72.69691101 25.96235485 72.69921875 28.28125 C72.69532973 29.89880483 72.69099464 31.51635864 72.68623352 33.13391113 C72.67878193 36.51980911 72.67905526 39.90560279 72.68432617 43.29150391 C72.6901251 47.62595159 72.67317468 51.95997255 72.6499815 56.29434967 C72.63523721 59.63326504 72.6343733 62.97207774 72.63749123 66.3110199 C72.63697855 67.90897976 72.63175085 69.50694545 72.62167931 71.10487366 C72.60931582 73.34037909 72.61610484 75.57505432 72.62768555 77.81054688 C72.62705612 79.08119995 72.6264267 80.35185303 72.6257782 81.66101074 C73.03138406 85.28002386 73.71112572 87.18255887 76 90 C79.59919423 90.89592083 79.59919423 90.89592083 83 91 C83 92.98 83 94.96 83 97 C71.78 97 60.56 97 49 97 C49 94.69 49 92.38 49 90 C53.455 89.505 53.455 89.505 58 89 C59.03935082 84.84259673 59.22388322 80.98455269 59.31640625 76.734375 C59.33505737 76.03070801 59.3537085 75.32704102 59.3729248 74.60205078 C59.44099077 71.98482274 59.50128705 69.36739729 59.5625 66.75 C59.706875 60.8925 59.85125 55.035 60 49 C47.79 49 35.58 49 23 49 C23.103125 54.65125 23.20625 60.3025 23.3125 66.125 C23.33739502 67.89762207 23.36229004 69.67024414 23.38793945 71.49658203 C23.42025442 72.9170184 23.45363166 74.33743116 23.48828125 75.7578125 C23.49764709 76.84533813 23.49764709 76.84533813 23.50720215 77.95483398 C23.63926845 82.65639425 24.36997417 86.06762561 27 90 C30.59385054 90.97873538 30.59385054 90.97873538 34 91 C34 92.65 34 94.3 34 96 C22.78 96 11.56 96 0 96 C0 94.35 0 92.7 0 91 C2.31 91 4.62 91 7 91 C7 90.34 7 89.68 7 89 C7.66 89 8.32 89 9 89 C10.16341405 85.50975786 10.14763577 82.37675293 10.14526367 78.74633789 C10.14862228 78.01105362 10.1519809 77.27576935 10.15544128 76.51820374 C10.16494423 74.08633741 10.16689401 71.65453999 10.16796875 69.22265625 C10.17118159 67.5325874 10.17454568 65.84251883 10.17805481 64.15245056 C10.18404429 60.60919551 10.18589487 57.06596484 10.18530273 53.52270508 C10.18520108 48.98193815 10.19885785 44.44132746 10.21607494 39.90059757 C10.22719147 36.40989971 10.22922206 32.91923968 10.22869301 29.42852592 C10.22987347 27.75438333 10.23429897 26.08023976 10.24202538 24.40611458 C10.25181908 22.06498376 10.24894986 19.72419289 10.24291992 17.38305664 C10.25134918 16.34571381 10.25134918 16.34571381 10.25994873 15.28741455 C10.23636925 11.68603777 9.9623303 9.06570594 8 6 C5.36 6 2.72 6 0 6 C0 4.02 0 2.04 0 0 Z " fill="#057478" transform="translate(281,312)"/>
<path d="M0 0 C6.38185522 6.07795736 9.4093555 9.924948 12.625 18.5 C12.625 24.44 12.625 30.38 12.625 36.5 C0.085 36.5 -12.455 36.5 -25.375 36.5 C-24.11048775 49.91986719 -24.11048775 49.91986719 -18.375 61.5 C-16.31337966 62.77206631 -16.31337966 62.77206631 -14.375 63.5 C-14.375 64.16 -14.375 64.82 -14.375 65.5 C-4.62921041 65.46751403 0.48324865 63.58318926 7.33984375 56.8046875 C7.76394531 56.37414062 8.18804687 55.94359375 8.625 55.5 C9.285 56.16 9.945 56.82 10.625 57.5 C10.52279716 61.99692509 9.19147316 64.82455238 6.10546875 68.109375 C0.80331712 73.08976017 -3.26955556 73.86104626 -10.4375 73.9375 C-11.46484253 73.95272705 -11.46484253 73.95272705 -12.51293945 73.96826172 C-18.75767399 73.86120482 -23.42869843 71.83228076 -27.9375 67.5625 C-36.48270938 58.69518739 -37.57118851 46.99828076 -37.625 35.375 C-37.645625 34.28445313 -37.66625 33.19390625 -37.6875 32.0703125 C-37.74140466 20.80423879 -35.6360938 12.14605188 -27.8125 3.75 C-20.84363833 -2.68279539 -8.66146227 -3.84953879 0 0 Z " fill="#0C787C" transform="translate(183.375,336.5)"/>
<path d="M0 0 C18.48 0 36.96 0 56 0 C56 7.87365761 56 7.87365761 53.359375 12.78125 C52.78960937 13.85826172 52.21984375 14.93527344 51.6328125 16.04492188 C51.01148438 17.18509766 50.39015625 18.32527344 49.75 19.5 C49.10531576 20.70820909 48.46210679 21.91720643 47.8203125 23.12695312 C46.51385281 25.58568186 45.20041452 28.04046288 43.88085938 30.4921875 C41.21051171 35.47239977 38.60480269 40.48529974 36 45.5 C35.03285561 47.35302304 34.06540249 49.20588496 33.09765625 51.05859375 C29.84835345 57.28668932 26.60960402 63.52024753 23.37475586 69.75585938 C22.46039418 71.51836951 21.54563191 73.28067182 20.63085938 75.04296875 C20.07076172 76.12320313 19.51066406 77.2034375 18.93359375 78.31640625 C18.1919397 79.74641968 18.1919397 79.74641968 17.43530273 81.20532227 C15.9353297 84.12591952 14.46831927 87.06336146 13 90 C23.89 90 34.78 90 46 90 C46 89.34 46 88.68 46 88 C46.99 87.34 47.98 86.68 49 86 C50.77760174 81.75350696 51.45347315 77.55439041 52 73 C53.98 73 55.96 73 58 73 C58 80.92 58 88.84 58 97 C38.2 97 18.4 97 -2 97 C-2 88.00226757 -2 88.00226757 0.5703125 83.26171875 C1.12976563 82.20855469 1.68921875 81.15539062 2.265625 80.0703125 C2.87921875 78.95398438 3.4928125 77.83765625 4.125 76.6875 C4.76476933 75.49442554 5.40275736 74.30039436 6.0390625 73.10546875 C7.36066236 70.6269432 8.68978438 68.15268431 10.02441406 65.68115234 C13.08844286 59.99174765 16.03792352 54.24292176 19 48.5 C20.1479035 46.28487944 21.2963448 44.0700375 22.4453125 41.85546875 C23.02055664 40.74606934 23.59580078 39.63666992 24.18847656 38.49365234 C29.45898438 28.32910156 34.72949219 18.16455078 40 8 C35.92512506 7.87633445 31.85097699 7.78563524 27.7746582 7.7253418 C26.38839696 7.70020781 25.00226813 7.66609408 23.61645508 7.62280273 C21.62378963 7.56211604 19.63015467 7.53645121 17.63671875 7.51171875 C16.43748779 7.48553467 15.23825684 7.45935059 14.00268555 7.43237305 C10.8220646 7.69532927 10.8220646 7.69532927 9.11499023 10.36547852 C7.94735887 13.12438153 7.54454839 15.26951771 7.375 18.25 C7.0851735 22.9148265 7.0851735 22.9148265 6 24 C4.02 24 2.04 24 0 24 C0 16.08 0 8.16 0 0 Z " fill="#0D797D" transform="translate(76,312)"/>
<path d="M0 0 C6.74492647 -0.51667264 10.39202367 0.83447197 15.6171875 5.0703125 C20.8617219 11.26541876 20.92196163 17.52130166 20.8984375 25.29296875 C20.90927368 26.33661591 20.92010986 27.38026306 20.93127441 28.45553589 C20.97698044 32.89853587 20.9886309 37.34147497 21.00341797 41.78466797 C21.01910987 45.03764608 21.05210133 48.29013698 21.0859375 51.54296875 C21.08291626 52.54514435 21.07989502 53.54731995 21.07678223 54.5798645 C21.09724799 61.45148458 21.09724799 61.45148458 24.4921875 67.28515625 C27.08341493 68.17174091 27.08341493 68.17174091 29.4921875 68.28515625 C29.4921875 70.26515625 29.4921875 72.24515625 29.4921875 74.28515625 C22.5621875 74.28515625 15.6321875 74.28515625 8.4921875 74.28515625 C8.47760498 72.62540771 8.46302246 70.96565918 8.44799805 69.25561523 C8.38993008 63.08482558 8.31269659 56.91439756 8.22973633 50.74389648 C8.1948985 48.07556214 8.16848424 45.40752235 8.14575195 42.73901367 C8.11213335 38.89862482 8.05981109 35.05887123 8.00390625 31.21875 C7.99751633 30.02994736 7.9911264 28.84114471 7.98454285 27.61631775 C7.87576736 21.45806437 7.6080635 16.67215965 4.4921875 11.28515625 C3.8321875 10.95515625 3.1721875 10.62515625 2.4921875 10.28515625 C2.4921875 9.62515625 2.4921875 8.96515625 2.4921875 8.28515625 C-4.36535814 8.42801986 -4.36535814 8.42801986 -10.4453125 11.28515625 C-15.0237749 17.94473793 -15.96020523 24.88327515 -15.87109375 32.80859375 C-15.87159225 33.676586 -15.87209076 34.54457825 -15.87260437 35.43887329 C-15.8702819 37.25565913 -15.8606627 39.0724493 -15.84399414 40.88916016 C-15.82019596 43.67379245 -15.82347233 46.4574779 -15.83007812 49.2421875 C-15.82450699 51.01432863 -15.81740068 52.78646575 -15.80859375 54.55859375 C-15.80950516 55.38982758 -15.81041656 56.2210614 -15.81135559 57.07748413 C-15.76308963 60.98429912 -15.72298404 62.96239894 -13.5078125 66.28515625 C-9.94011698 67.02122124 -9.94011698 67.02122124 -6.5078125 67.28515625 C-6.5078125 69.59515625 -6.5078125 71.90515625 -6.5078125 74.28515625 C-17.0678125 74.28515625 -27.6278125 74.28515625 -38.5078125 74.28515625 C-38.5078125 72.30515625 -38.5078125 70.32515625 -38.5078125 68.28515625 C-36.8371875 67.88296875 -36.8371875 67.88296875 -35.1328125 67.47265625 C-31.28940299 66.62706606 -31.28940299 66.62706606 -29.5078125 63.28515625 C-29.190824 60.86250273 -29.190824 60.86250273 -29.21728516 58.12695312 C-29.20452545 57.07576294 -29.19176575 56.02457275 -29.17861938 54.94152832 C-29.17639374 53.80711304 -29.17416809 52.67269775 -29.171875 51.50390625 C-29.1652182 50.33887573 -29.1585614 49.17384521 -29.15170288 47.97351074 C-29.1415722 45.50888653 -29.13688599 43.04423486 -29.13720703 40.57958984 C-29.13282969 36.79999914 -29.09650082 33.02157182 -29.05859375 29.2421875 C-29.05272668 26.85026442 -29.04875655 24.45833578 -29.046875 22.06640625 C-29.03250397 20.93199097 -29.01813293 19.79757568 -29.00332642 18.62878418 C-29.00947968 17.57759399 -29.01563293 16.52640381 -29.02197266 15.44335938 C-29.0176976 14.05461609 -29.0176976 14.05461609 -29.01333618 12.63781738 C-29.30660506 10.14259045 -29.30660506 10.14259045 -31.36630249 8.5057373 C-33.7527955 7.14552505 -35.79958894 6.66129841 -38.5078125 6.28515625 C-38.5078125 4.63515625 -38.5078125 2.98515625 -38.5078125 1.28515625 C-35.19533063 1.25627479 -31.88288083 1.23839826 -28.5703125 1.22265625 C-27.62478516 1.21427734 -26.67925781 1.20589844 -25.70507812 1.19726562 C-24.35639648 1.19243164 -24.35639648 1.19243164 -22.98046875 1.1875 C-21.73148804 1.17964478 -21.73148804 1.17964478 -20.45727539 1.17163086 C-18.5078125 1.28515625 -18.5078125 1.28515625 -17.5078125 2.28515625 C-17.43575739 3.97124591 -17.42395182 5.66016284 -17.4453125 7.34765625 C-17.45433594 8.26675781 -17.46335938 9.18585938 -17.47265625 10.1328125 C-17.48425781 10.84308594 -17.49585938 11.55335938 -17.5078125 12.28515625 C-16.8478125 12.28515625 -16.1878125 12.28515625 -15.5078125 12.28515625 C-15.39824219 11.70121094 -15.28867188 11.11726563 -15.17578125 10.515625 C-14.01720384 6.64692501 -11.47948144 3.94844445 -8.5078125 1.28515625 C-5.60145577 0.27131088 -3.02969368 0.34449788 0 0 Z " fill="#0B787B" transform="translate(243.5078125,334.71484375)"/>
<path d="M0 0 C1.43676878 0.73060643 2.8743279 1.45965986 4.3125 2.1875 C9.94208393 5.318238 14.42516966 9.50646713 19 14 C20.08861328 15.051875 20.08861328 15.051875 21.19921875 16.125 C32.7515086 28.09537272 36.37066397 43.78880613 36.2109375 59.953125 C35.66642765 73.89526618 31.45596118 85.7096893 22 96 C19.00779732 94.63629701 16.70973471 93.05091917 14.25 90.875 C13.63640625 90.33617187 13.0228125 89.79734375 12.390625 89.2421875 C11.93171875 88.83226562 11.4728125 88.42234375 11 88 C11.64464424 84.57237941 13.00298675 82.17443861 14.875 79.25 C22.07909059 67.5195983 23.85522733 54.5122855 21.3515625 41.00390625 C17.94694133 26.78888537 10.92906151 16.65816307 -1.37109375 8.80078125 C-11.5153843 2.63448326 -19.79755514 0.64777021 -31.5625 0.75 C-32.90344727 0.73839844 -32.90344727 0.73839844 -34.27148438 0.7265625 C-48.49967488 0.76819583 -59.7714821 6.17898965 -70.05078125 15.94921875 C-81.71665586 28.70149411 -86.59789482 43.91400576 -86 61 C-85.74176782 64.34366148 -85.40439024 67.67100176 -85 71 C-85.33 70.01 -85.66 69.02 -86 68 C-87.65 69.32 -89.3 70.64 -91 72 C-96.35239283 58.44774135 -92.7847522 42.89390206 -87.78515625 29.82421875 C-84.04252523 21.46025204 -76.89829723 10.55096368 -68 7 C-68 6.34 -68 5.68 -68 5 C-51.3575387 -10.01343731 -18.62161389 -12.17567062 0 0 Z " fill="#154153" transform="translate(335,82)"/>
<path d="M0 0 C4.39449085 0.35245155 6.92225169 1.7667399 10.41015625 4.24609375 C11.64161313 5.07989096 12.87339305 5.91321122 14.10546875 6.74609375 C14.72711914 7.1740625 15.34876953 7.60203125 15.98925781 8.04296875 C18.87884611 10.01086493 21.83384074 11.87270093 24.78515625 13.74609375 C35.63026477 20.701458 46.33537451 27.85929651 56.84765625 35.30859375 C58.11179306 36.20078459 59.37613359 37.0926868 60.640625 37.984375 C65.80101268 41.62399613 70.95853159 45.2676753 76.11621094 48.91113281 C80.43078451 51.95880258 84.74608236 55.00543928 89.06298828 58.04980469 C90.53201729 59.0859625 92.00046356 60.12294645 93.46875 61.16015625 C99.19208873 65.18732354 104.95700615 69.15484876 110.72265625 73.12109375 C111.55651855 73.69722412 112.39038086 74.27335449 113.24951172 74.86694336 C114.04244629 75.4110083 114.83538086 75.95507324 115.65234375 76.515625 C116.36374512 77.00522705 117.07514648 77.4948291 117.80810547 77.99926758 C119.7684255 79.25773015 121.74504416 80.30986778 123.84765625 81.30859375 C123.84765625 81.96859375 123.84765625 82.62859375 123.84765625 83.30859375 C125.16765625 83.96859375 126.48765625 84.62859375 127.84765625 85.30859375 C124.84765625 86.30859375 124.84765625 86.30859375 122.60546875 85.33984375 C121.30222656 84.581875 121.30222656 84.581875 119.97265625 83.80859375 C119.00457031 83.256875 118.03648437 82.70515625 117.0390625 82.13671875 C115.98589844 81.5334375 114.93273437 80.93015625 113.84765625 80.30859375 C111.53892494 79.05164667 109.22642469 77.80159688 106.91015625 76.55859375 C105.84925781 75.98625 104.78835938 75.41390625 103.6953125 74.82421875 C101.42756929 73.61724431 99.15284916 72.44174882 96.84765625 71.30859375 C96.84765625 70.64859375 96.84765625 69.98859375 96.84765625 69.30859375 C95.96013672 69.13457031 95.96013672 69.13457031 95.0546875 68.95703125 C92.72353176 68.27212532 91.4303217 67.42620615 89.53515625 65.93359375 C86.15250077 63.42526871 82.76156803 61.90069346 78.84765625 60.30859375 C61.37665587 51.99460688 61.37665587 51.99460688 55.84765625 47.30859375 C55.84765625 46.64859375 55.84765625 45.98859375 55.84765625 45.30859375 C55.17089844 45.21449219 54.49414062 45.12039062 53.796875 45.0234375 C50.14469518 44.13820716 46.98230712 42.57556196 43.66015625 40.87109375 C43.03173828 40.55849609 42.40332031 40.24589844 41.75585938 39.92382812 C39.1073041 38.58397075 36.95975895 37.42069645 34.84765625 35.30859375 C32.77891591 34.66607025 32.77891591 34.66607025 30.84765625 34.30859375 C30.84765625 33.64859375 30.84765625 32.98859375 30.84765625 32.30859375 C29.17703125 31.84453125 29.17703125 31.84453125 27.47265625 31.37109375 C23.84765625 30.30859375 23.84765625 30.30859375 21.84765625 29.30859375 C21.84765625 28.64859375 21.84765625 27.98859375 21.84765625 27.30859375 C21.10515625 27.18484375 20.36265625 27.06109375 19.59765625 26.93359375 C17.0462414 26.35372674 15.12089895 25.57150636 12.84765625 24.30859375 C12.84765625 23.64859375 12.84765625 22.98859375 12.84765625 22.30859375 C11.89890625 22.08171875 10.95015625 21.85484375 9.97265625 21.62109375 C5.03342221 20.22434314 -1.47442495 17.98651255 -5.15234375 14.30859375 C-10.31100531 13.85341773 -15.15125287 15.04474688 -19.52734375 17.80859375 C-21.98135605 19.21088649 -23.38227741 19.62744906 -26.08984375 20.12109375 C-33.46112716 21.57806434 -40.23002669 25.07929504 -47.03637695 28.16186523 C-50.60256012 29.74460157 -53.22406848 30.66570968 -57.15234375 30.30859375 C-57.15234375 30.96859375 -57.15234375 31.62859375 -57.15234375 32.30859375 C-60.45234375 32.96859375 -63.75234375 33.62859375 -67.15234375 34.30859375 C-65.33015092 28.84201525 -59.03302192 26.89990994 -54.15234375 24.30859375 C-47.65560029 21.06390916 -41.24804162 17.95875605 -34.15234375 16.30859375 C-34.15234375 15.64859375 -34.15234375 14.98859375 -34.15234375 14.30859375 C-33.5696875 14.17324219 -32.98703125 14.03789062 -32.38671875 13.8984375 C-25.89497784 12.19384515 -20.70946037 9.44901088 -15 5.95703125 C-11.47556071 3.91682085 -7.99870738 2.61490593 -4.15234375 1.30859375 C-3.15234375 0.30859375 -3.15234375 0.30859375 0 0 Z " fill="#1A4858" transform="translate(287.15234375,208.69140625)"/>
<path d="M0 0 C7.59 0 15.18 0 23 0 C23.02505615 2.79629883 23.0501123 5.59259766 23.07592773 8.47363281 C23.15935078 17.7057435 23.24804329 26.93779812 23.33933926 36.16983414 C23.39453729 41.76798792 23.44795239 47.36614695 23.49731445 52.96435547 C23.5450039 58.36547152 23.5973485 63.76652411 23.65294075 69.16756439 C23.67334352 71.22964653 23.69206003 73.29174606 23.70907402 75.35385895 C23.73316393 78.23889965 23.76321239 81.1238207 23.79467773 84.00878906 C23.80331093 85.29164543 23.80331093 85.29164543 23.81211853 86.60041809 C23.82190735 87.38843307 23.83169617 88.17644806 23.84178162 88.98834229 C23.84823417 89.67046909 23.85468672 90.3525959 23.8613348 91.05539322 C24.0093698 93.13139981 24.43939323 94.99912125 25 97 C27.64 97.33 30.28 97.66 33 98 C33 99.98 33 101.96 33 104 C22.11 104 11.22 104 0 104 C0 101.69 0 99.38 0 97 C1.093125 96.938125 2.18625 96.87625 3.3125 96.8125 C7.03372768 96.38855641 7.03372768 96.38855641 8.7071991 93.94070435 C10.31586113 90.28151798 10.41364762 87.05863404 10.37231445 83.13623047 C10.37596512 82.36003357 10.37961578 81.58383667 10.38337708 80.78411865 C10.39145818 78.22824977 10.37789555 75.67301963 10.36328125 73.1171875 C10.36276245 71.3379008 10.36328091 69.55861352 10.36479187 67.77932739 C10.36470226 64.0554343 10.3542944 60.33175822 10.33618164 56.60791016 C10.31346187 51.83166367 10.31295756 47.05573325 10.31969929 42.27944756 C10.32303783 38.60776961 10.31641189 34.93616391 10.30657005 31.26449966 C10.30271827 29.50301618 10.30156975 27.74152467 10.3031559 25.98003769 C10.30352613 23.52152887 10.29091947 21.06342807 10.2746582 18.60498047 C10.27713562 17.87556244 10.27961304 17.14614441 10.28216553 16.3946228 C10.24319809 12.70936159 10.10143562 11.15215343 8 8 C6.03638136 7.42251197 6.03638136 7.42251197 3.875 7.3125 C2.59625 7.209375 1.3175 7.10625 0 7 C0 4.69 0 2.38 0 0 Z " fill="#0B787C" transform="translate(444,305)"/>
<path d="M0 0 C7.59 0 15.18 0 23 0 C23.01981934 2.79106201 23.03963867 5.58212402 23.06005859 8.45776367 C23.12695595 17.6779311 23.2045957 26.89798551 23.28752708 36.11802197 C23.3374796 41.70829472 23.38380988 47.29854867 23.421875 52.88891602 C23.45874078 58.2836039 23.50510454 63.67813409 23.55806351 69.07268715 C23.57660052 71.1311396 23.59171104 73.18962585 23.60334396 75.24812889 C23.62021806 78.13067152 23.64925631 81.01285356 23.68115234 83.89526367 C23.68331253 84.74690598 23.68547272 85.59854828 23.68769836 86.47599792 C23.7483058 90.76165696 24.01670323 94.09247617 26 98 C28.31 98 30.62 98 33 98 C33 99.98 33 101.96 33 104 C22.11 104 11.22 104 0 104 C0 102.02 0 100.04 0 98 C2.31 98 4.62 98 7 98 C9.54681573 93.07615626 10.14877146 89.08346687 10.14526367 83.59448242 C10.14862228 82.84290359 10.1519809 82.09132477 10.15544128 81.31697083 C10.16494778 78.82978669 10.16689438 76.34266993 10.16796875 73.85546875 C10.17118203 72.12535067 10.17454616 70.39523286 10.17805481 68.66511536 C10.18404567 65.03609589 10.1858948 61.40710024 10.18530273 57.77807617 C10.18520123 53.13437532 10.1988419 48.49082776 10.21607494 43.8471632 C10.22721077 40.27231652 10.22922144 36.69750667 10.22869301 33.12264442 C10.22987118 31.41107976 10.23428381 29.69951409 10.24202538 27.98796654 C10.25185526 25.58977001 10.24893525 23.19190335 10.24291992 20.79370117 C10.25134918 19.73909195 10.25134918 19.73909195 10.25994873 18.66317749 C10.23290848 14.40701582 9.55175445 10.95950918 8 7 C5.36 7 2.72 7 0 7 C0 4.69 0 2.38 0 0 Z " fill="#0C787C" transform="translate(408,305)"/>
<path d="M0 0 C3.33563415 2.26046906 5.71241405 4.10634091 6.82421875 8.07421875 C6.9701677 11.60034539 6.4677951 14.10752933 4.984375 17.30859375 C2.61285826 19.18945185 1.12248643 19.06507877 -1.828125 18.74609375 C-2.16992188 15.76757812 -2.16992188 15.76757812 -2.51171875 12.7890625 C-2.79983235 10.55212982 -2.79983235 10.55212982 -3.828125 7.74609375 C-4.818125 7.41609375 -5.808125 7.08609375 -6.828125 6.74609375 C-6.828125 6.08609375 -6.828125 5.42609375 -6.828125 4.74609375 C-14.1495749 4.73325184 -14.1495749 4.73325184 -20.515625 7.80859375 C-22.19178621 11.56000217 -22.59791718 14.74788742 -21.828125 18.74609375 C-17.66381143 27.07472088 -10.08303054 29.67905375 -1.828125 32.74609375 C-1.828125 33.40609375 -1.828125 34.06609375 -1.828125 34.74609375 C-1.23386719 35.00519531 -0.63960937 35.26429688 -0.02734375 35.53125 C2.33125607 36.83413551 3.63870088 38.12674679 5.359375 40.18359375 C5.86855469 40.78042969 6.37773438 41.37726563 6.90234375 41.9921875 C10.06233529 46.35783735 9.70002188 51.60595999 9.171875 56.74609375 C7.4199885 63.10293904 4.61496264 67.07792599 -0.828125 70.74609375 C-1.488125 70.74609375 -2.148125 70.74609375 -2.828125 70.74609375 C-2.828125 71.40609375 -2.828125 72.06609375 -2.828125 72.74609375 C-6.72462317 73.99781855 -10.65242014 73.96636381 -14.703125 73.99609375 C-15.39792969 74.01671875 -16.09273438 74.03734375 -16.80859375 74.05859375 C-22.75536795 74.10339054 -26.67128499 72.6114689 -31.140625 68.74609375 C-34.19173987 65.1299576 -34.16490467 61.43826781 -34.11328125 56.91015625 C-33.828125 54.74609375 -33.828125 54.74609375 -32.078125 52.18359375 C-29.828125 50.74609375 -29.828125 50.74609375 -25.828125 50.74609375 C-25.71855469 51.4215625 -25.60898437 52.09703125 -25.49609375 52.79296875 C-25.33753906 53.685 -25.17898438 54.57703125 -25.015625 55.49609375 C-24.86480469 56.3778125 -24.71398437 57.25953125 -24.55859375 58.16796875 C-23.75833673 60.99240531 -22.82085026 62.60379347 -20.828125 64.74609375 C-16.18826624 66.29271334 -11.66876207 66.34755015 -6.828125 65.74609375 C-3.87000783 64.11192229 -3.87000783 64.11192229 -2.828125 60.74609375 C-1.9946003 55.29549595 -1.74234496 51.22396102 -5.078125 46.68359375 C-7.29844099 45.11928021 -9.31804005 43.76872095 -11.828125 42.74609375 C-11.828125 42.08609375 -11.828125 41.42609375 -11.828125 40.74609375 C-12.818125 40.53984375 -13.808125 40.33359375 -14.828125 40.12109375 C-21.42156346 38.2353436 -27.1235766 33.44539898 -30.828125 27.74609375 C-33.20629413 22.63303012 -33.68956498 17.29001441 -32.828125 11.74609375 C-30.93602258 7.51172327 -28.28681389 2.83330304 -23.90234375 0.89453125 C-16.17220047 -1.61049063 -7.69202012 -3.41041224 0 0 Z " fill="#0F7A7E" transform="translate(517.828125,336.25390625)"/>
<path d="M0 0 C4.14059598 1.66421066 7.82639577 3.82639577 11 7 C12.34267413 7.08631874 13.68974322 7.10706473 15.03515625 7.09765625 C15.84404297 7.09443359 16.65292969 7.09121094 17.48632812 7.08789062 C18.7615332 7.07532227 18.7615332 7.07532227 20.0625 7.0625 C20.91650391 7.05798828 21.77050781 7.05347656 22.65039062 7.04882812 C24.76695663 7.03700373 26.88348685 7.01906769 29 7 C29 7.66 29 8.32 29 9 C30.0209375 9.061875 30.0209375 9.061875 31.0625 9.125 C35.29844758 10.38677162 38.04532938 12.75595442 41 16 C43.80183387 21.48184888 43.93897365 27.68060126 42.27734375 33.5546875 C40.23298552 39.00079161 37.57727802 43.42903364 34 48 C30.08273156 46.34813982 27.10914624 43.69575996 23.9375 40.9375 C22.78058544 39.94456921 21.6230222 38.95239377 20.46484375 37.9609375 C19.88589355 37.46432617 19.30694336 36.96771484 18.71044922 36.45605469 C13.64038068 32.14005572 8.49624072 27.88951554 3.1875 23.87109375 C2.465625 23.25363281 1.74375 22.63617188 1 22 C1 21.34 1 20.68 1 20 C0.40574219 19.72542969 -0.18851562 19.45085937 -0.80078125 19.16796875 C-2.90690972 18.04943871 -4.42400242 16.90182498 -6.1875 15.3125 C-10.31111523 11.68192573 -14.64073907 8.34111155 -19 5 C-18.625 3.0625 -18.625 3.0625 -18 1 C-13.08694919 -1.4565254 -5.38047012 -0.79313182 0 0 Z " fill="#0BAEAF" transform="translate(306,116)"/>
<path d="M0 0 C7.26 0 14.52 0 22 0 C22.01458252 1.8572168 22.02916504 3.71443359 22.04418945 5.62792969 C22.09585279 11.76683313 22.16114183 17.90547356 22.23571491 24.04413986 C22.28042681 27.76573264 22.3196808 31.48721575 22.34643555 35.20898438 C22.37246086 38.80128613 22.41285692 42.39316603 22.46318626 45.9852066 C22.47986038 47.35506184 22.49137131 48.72499006 22.49761391 50.09493256 C22.50724809 52.01490344 22.53700622 53.93474133 22.56762695 55.85449219 C22.57873001 56.94703308 22.58983307 58.03957397 22.60127258 59.16522217 C23.04982973 62.35426766 23.72933445 63.74211859 26 66 C29.10197397 66.80946422 29.10197397 66.80946422 32 67 C32 68.65 32 70.3 32 72 C21.11 72 10.22 72 -1 72 C-1 70.35 -1 68.7 -1 67 C1.31 67 3.62 67 6 67 C6 66.34 6 65.68 6 65 C6.66 65 7.32 65 8 65 C8.89557302 61.91732605 9.14134833 59.13324087 9.17700195 55.92773438 C9.19625481 54.41596619 9.19625481 54.41596619 9.21589661 52.87365723 C9.22328354 51.79128784 9.23067047 50.70891846 9.23828125 49.59375 C9.246353 48.47689819 9.25442474 47.36004639 9.26274109 46.20935059 C9.27656176 43.84905543 9.28729292 41.48874046 9.29516602 39.12841797 C9.31243495 35.51361664 9.35634663 31.89971684 9.40039062 28.28515625 C9.41051299 25.99219422 9.41903052 23.69922443 9.42578125 21.40625 C9.45204338 19.78269592 9.45204338 19.78269592 9.47883606 18.12634277 C9.47591049 17.11849731 9.47298492 16.11065186 9.4699707 15.07226562 C9.47583694 14.18720337 9.48170319 13.30214111 9.48774719 12.39025879 C8.83761459 9.20421242 7.49646951 8.01565231 5 6 C2.35815459 5.20318682 2.35815459 5.20318682 0 5 C0 3.35 0 1.7 0 0 Z " fill="#067579" transform="translate(372,336)"/>
<path d="M0 0 C-0.66 0.33 -1.32 0.66 -2 1 C-1.505 4.465 -1.505 4.465 -1 8 C-3.40749938 7.06806476 -5.78387591 6.10051359 -8.125 5.01171875 C-8.888125 4.65722656 -9.65125 4.30273438 -10.4375 3.9375 C-11.15808594 3.59589844 -11.87867188 3.25429687 -12.62109375 2.90234375 C-18.68497693 0.60225013 -24.98213965 0.81700201 -31.375 0.8125 C-32.2825 0.80025391 -33.19 0.78800781 -34.125 0.77539062 C-48.43209484 0.74446751 -59.70898796 6.11959046 -70.05078125 15.94921875 C-81.71665586 28.70149411 -86.59789482 43.91400576 -86 61 C-85.74176782 64.34366148 -85.40439024 67.67100176 -85 71 C-85.33 70.01 -85.66 69.02 -86 68 C-87.65 69.32 -89.3 70.64 -91 72 C-96.35239283 58.44774135 -92.7847522 42.89390206 -87.78515625 29.82421875 C-84.04252523 21.46025204 -76.89829723 10.55096368 -68 7 C-68 6.34 -68 5.68 -68 5 C-51.55103068 -9.83888502 -18.39020513 -12.40269648 0 0 Z " fill="#2D5361" transform="translate(335,82)"/>
<path d="M0 0 C2.52734375 0.50390625 2.52734375 0.50390625 5.02734375 2.37890625 C8.75977465 10.15480397 9.52734375 15.65148607 9.52734375 24.50390625 C0.94734375 24.50390625 -7.63265625 24.50390625 -16.47265625 24.50390625 C-16.47265625 16.51311187 -15.89377001 9.69545983 -11.47265625 2.87890625 C-7.56434559 -0.21517302 -4.88703204 -0.3083094 0 0 Z " fill="#F6FAFA" transform="translate(174.47265625,341.49609375)"/>
<path d="M0 0 C3.47771391 2.0435368 6.82238563 4.20770347 10.1328125 6.51171875 C11.10476563 7.18783203 12.07671875 7.86394531 13.078125 8.56054688 C14.08359375 9.26244141 15.0890625 9.96433594 16.125 10.6875 C17.59839844 11.71133789 17.59839844 11.71133789 19.1015625 12.75585938 C24.93422431 16.81953625 30.70606219 20.95665813 36.44628906 25.1496582 C40.02719254 27.74427268 43.66052038 30.25685676 47.3125 32.75 C47.97572266 33.20503906 48.63894531 33.66007812 49.32226562 34.12890625 C56.89828509 39.51108288 56.89828509 39.51108288 65 44 C65 44.66 65 45.32 65 46 C66.32 46.66 67.64 47.32 69 48 C66 49 66 49 63.7578125 48.03125 C62.88898438 47.5259375 62.02015625 47.020625 61.125 46.5 C60.15691406 45.94828125 59.18882812 45.3965625 58.19140625 44.828125 C57.13824219 44.22484375 56.08507812 43.6215625 55 43 C52.69126869 41.74305292 50.37876844 40.49300313 48.0625 39.25 C46.47115234 38.39148438 46.47115234 38.39148438 44.84765625 37.515625 C42.57991304 36.30865056 40.30519291 35.13315507 38 34 C38 33.34 38 32.68 38 32 C37.11248047 31.82597656 37.11248047 31.82597656 36.20703125 31.6484375 C33.87587551 30.96353157 32.58266545 30.1176124 30.6875 28.625 C27.30484452 26.11667496 23.91391178 24.59209971 20 23 C1.37641206 14.1375272 1.37641206 14.1375272 -3 9 C-1.68 9 -0.36 9 1 9 C0.46375 8.443125 -0.0725 7.88625 -0.625 7.3125 C-1.305625 6.1678125 -1.305625 6.1678125 -2 5 C-1.1875 2.25 -1.1875 2.25 0 0 Z " fill="#234C5C" transform="translate(346,246)"/>
<path d="M0 0 C6.36890808 5.20604565 6.36890808 5.20604565 8.9375 8.4375 C10.81912441 10.77527578 12.6625956 12.50213357 14.9375 14.4375 C18.36952449 17.36295261 21.11756693 20.52629861 24 24 C25.10736179 24.97866115 26.23369509 25.93614385 27.375 26.875 C30.00777843 29.05287071 32.23091296 31.32880143 34.4375 33.9375 C37.37136395 37.39644027 40.54317346 40.26795724 44 43.19140625 C47.31015136 46.18476578 50.15129422 49.57265086 53 53 C52.505 53.99 52.505 53.99 52 55 C51.351521 54.47212891 51.351521 54.47212891 50.68994141 53.93359375 C45.79675355 49.95146158 40.90006776 45.97366339 36 42 C35.43667969 41.54302734 34.87335937 41.08605469 34.29296875 40.61523438 C32.90546081 39.49124538 31.51535635 38.37046364 30.125 37.25 C29.36445312 36.63640625 28.60390625 36.0228125 27.8203125 35.390625 C26.04533176 33.94449809 26.04533176 33.94449809 24 33 C24 32.34 24 31.68 24 31 C23.43796875 30.73703125 22.8759375 30.4740625 22.296875 30.203125 C17.92053627 27.9107571 14.0065703 24.87635868 10 22 C9.19820313 21.43152344 8.39640625 20.86304688 7.5703125 20.27734375 C6.84585937 19.75269531 6.12140625 19.22804688 5.375 18.6875 C4.72273438 18.21699219 4.07046875 17.74648438 3.3984375 17.26171875 C2.93695313 16.84535156 2.47546875 16.42898438 2 16 C2 15.34 2 14.68 2 14 C1.236875 13.7525 0.47375 13.505 -0.3125 13.25 C-3.2364045 11.89004442 -4.30004356 10.68414174 -6 8 C-5.34 8 -4.68 8 -4 8 C-3.71125 7.236875 -3.4225 6.47375 -3.125 5.6875 C-2 3 -2 3 0 0 Z " fill="#185260" transform="translate(498,262)"/>
<path d="M0 0 C0 0.99 0 1.98 0 3 C-0.66 3 -1.32 3 -2 3 C-2.08894531 3.57492188 -2.17789062 4.14984375 -2.26953125 4.7421875 C-3.19201343 7.59349607 -4.60736979 8.97751319 -6.6875 11.125 C-18.09916166 23.63904043 -22.58627063 38.24618933 -22 55 C-21.74176782 58.34366148 -21.40439024 61.67100176 -21 65 C-21.33 64.01 -21.66 63.02 -22 62 C-23.65 63.32 -25.3 64.64 -27 66 C-32.35239283 52.44774135 -28.7847522 36.89390206 -23.78515625 23.82421875 C-19.6571818 14.59909325 -13.04556045 8.04556045 -6 1 C-3.90200436 0.34437636 -2.19959601 0 0 0 Z " fill="#1E4455" transform="translate(271,88)"/>
<path d="M0 0 C2.97 0 5.94 0 9 0 C9 0.99 9 1.98 9 3 C33.09 3 57.18 3 82 3 C82 3.66 82 4.32 82 5 C57.91 5 33.82 5 9 5 C9 5.99 9 6.98 9 8 C6.03 8 3.06 8 0 8 C0 5.36 0 2.72 0 0 Z " fill="#565656" transform="translate(100,433)"/>
<path d="M0 0 C2.97 0 5.94 0 9 0 C9 2.64 9 5.28 9 8 C6.03 8 3.06 8 0 8 C0 7.01 0 6.02 0 5 C-23.76 5 -47.52 5 -72 5 C-72 4.34 -72 3.68 -72 3 C-48.24 3 -24.48 3 0 3 C0 2.01 0 1.02 0 0 Z " fill="#606060" transform="translate(492,433)"/>
<path d="M0 0 C2.05859375 -0.36328125 2.05859375 -0.36328125 4.4375 -0.3125 C5.21996094 -0.30863281 6.00242187 -0.30476563 6.80859375 -0.30078125 C9 0 9 0 12 2 C12.328125 4.09375 12.328125 4.09375 12.25 6.5 C12.23453125 7.2940625 12.2190625 8.088125 12.203125 8.90625 C12 11 12 11 11 13 C10.34 13 9.68 13 9 13 C9 13.66 9 14.32 9 15 C3.78074866 15.42780749 3.78074866 15.42780749 1 15 C-1.74928168 12.16480327 -1.97433694 10.29769152 -2.3125 6.375 C-2 3 -2 3 0 0 Z " fill="#0C797C" transform="translate(382,307)"/>
<path d="M0 0 C0.87914062 0.00451172 1.75828125 0.00902344 2.6640625 0.01367188 C4.81773803 0.02537663 6.97137817 0.04330931 9.125 0.0625 C9.125 0.3925 9.125 0.7225 9.125 1.0625 C0.71 1.5575 0.71 1.5575 -7.875 2.0625 C-8.205 2.7225 -8.535 3.3825 -8.875 4.0625 C-10.72265625 4.6953125 -10.72265625 4.6953125 -12.9375 5.1875 C-13.67097656 5.35507813 -14.40445312 5.52265625 -15.16015625 5.6953125 C-15.72605469 5.81648438 -16.29195313 5.93765625 -16.875 6.0625 C-15.555 6.7225 -14.235 7.3825 -12.875 8.0625 C-14.050625 8.330625 -15.22625 8.59875 -16.4375 8.875 C-24.21935171 10.85459385 -30.35839056 14.49644032 -36.875 19.0625 C-36.875 18.0725 -36.875 17.0825 -36.875 16.0625 C-36.215 16.0625 -35.555 16.0625 -34.875 16.0625 C-34.875 15.0725 -34.875 14.0825 -34.875 13.0625 C-36.195 13.3925 -37.515 13.7225 -38.875 14.0625 C-38.875 13.4025 -38.875 12.7425 -38.875 12.0625 C-28.29971404 2.52236108 -13.71808034 -0.13428844 0 0 Z " fill="#305563" transform="translate(305.875,74.9375)"/>
<path d="M0 0 C2.1385485 2.1385485 2.42655063 3.13275314 3 6 C3.66 6 4.32 6 5 6 C3.47920927 9.50827915 1.4004327 11.95271646 -1.1875 14.75 C-4.75267358 18.6256887 -8.21246881 22.56148752 -11.58984375 26.6015625 C-13 28 -13 28 -15 28 C-13.2549073 22.13372791 -10.66696129 16.70835662 -8.0625 11.1875 C-7.61970703 10.22134766 -7.17691406 9.25519531 -6.72070312 8.25976562 C-6.07198242 6.88401367 -6.07198242 6.88401367 -5.41015625 5.48046875 C-5.01965088 4.64410889 -4.62914551 3.80774902 -4.22680664 2.94604492 C-3 1 -3 1 0 0 Z " fill="#1D495B" transform="translate(190,250)"/>
<path d="M0 0 C5.12362031 4.23255591 9.6655681 8.70492349 14.125 13.625 C17.89345161 17.77765383 21.57056763 21.53739804 26 25 C27.30600236 26.38431198 28.57993099 27.79991881 29.8125 29.25 C30.41707031 29.95640625 31.02164063 30.6628125 31.64453125 31.390625 C32.09183594 31.92171875 32.53914062 32.4528125 33 33 C32.505 33.99 32.505 33.99 32 35 C31.351521 34.47212891 31.351521 34.47212891 30.68994141 33.93359375 C25.79675355 29.95146158 20.90006776 25.97366339 16 22 C15.43667969 21.54302734 14.87335937 21.08605469 14.29296875 20.61523438 C12.90546081 19.49124538 11.51535635 18.37046364 10.125 17.25 C8.98417969 16.32960938 8.98417969 16.32960938 7.8203125 15.390625 C6.04533176 13.94449809 6.04533176 13.94449809 4 13 C4 12.34 4 11.68 4 11 C3.401875 10.731875 2.80375 10.46375 2.1875 10.1875 C0.02775192 9.01506533 -1.35790256 7.80630718 -3 6 C-0.0280615 7.12451727 2.33440687 8.22293791 5 10 C4.28436734 7.9837767 4.28436734 7.9837767 3 6 C0.94999129 5.19471111 0.94999129 5.19471111 -1 5 C-0.67 3.35 -0.34 1.7 0 0 Z " fill="#295060" transform="translate(518,282)"/>
<path d="M0 0 C-1.35831708 8.89223853 -7.57284333 16.92262056 -14 23 C-18.06701312 25.65600857 -21.14518493 26.64730868 -26 26 C-27.9375 24.9375 -27.9375 24.9375 -29 23 C-29.06281743 19.60785874 -28.88286899 17.17524768 -26.796875 14.3984375 C-25.3125 13 -25.3125 13 -22 11 C-18.625 11.1875 -18.625 11.1875 -16 12 C-15.67 13.65 -15.34 15.3 -15 17 C-15.66 17.33 -16.32 17.66 -17 18 C-17.33 16.68 -17.66 15.36 -18 14 C-20.6635969 14.35994553 -22.58183452 14.71161002 -24.8125 16.25 C-26.39364795 18.58011277 -26.22337696 20.24501755 -26 23 C-24.58249437 22.88490339 -23.16598831 22.75746342 -21.75 22.625 C-20.96109375 22.55539062 -20.1721875 22.48578125 -19.359375 22.4140625 C-16.82346675 21.969019 -15.14714116 21.42225162 -13 20 C-11.90746862 18.18602196 -11.90746862 18.18602196 -11 16 C-9.21811112 13.16461561 -7.38884668 10.36295219 -5.55859375 7.55859375 C-3.88371086 5.0235894 -3.88371086 5.0235894 -3 2 C-5.99152582 2.77479736 -5.99152582 2.77479736 -9 4 C-9.33 4.99 -9.66 5.98 -10 7 C-10.66 7 -11.32 7 -12 7 C-11.75 4.625 -11.75 4.625 -11 2 C-7.7044247 -0.66181082 -4.06660119 -0.15640774 0 0 Z " fill="#717171" transform="translate(223,422)"/>
<path d="M0 0 C0.33 1.32 0.66 2.64 1 4 C0.01 4.33 -0.98 4.66 -2 5 C-2 5.66 -2 6.32 -2 7 C-1.01 7.66 -0.02 8.32 1 9 C-4.40528825 13.65106199 -4.40528825 13.65106199 -7.296875 15.34765625 C-11.21199 17.74085516 -14.70434219 20.6257321 -18.27148438 23.50390625 C-23.41976728 27.56231874 -23.41976728 27.56231874 -27 28 C-25.62128553 24.80652663 -24.11775746 23.00390058 -21.4375 20.80859375 C-16.70358841 16.8012477 -12.35884422 12.47044731 -8 8.0625 C-7.22527344 7.28326172 -6.45054688 6.50402344 -5.65234375 5.70117188 C-3.76589243 3.8030758 -1.88183755 1.90266851 0 0 Z " fill="#2B4757" transform="translate(73,289)"/>
<path d="M0 0 C3.48670834 1.1094072 6.77484237 2.26337666 10 4 C10.33 3.01 10.66 2.02 11 1 C11.46374023 1.32274902 11.92748047 1.64549805 12.40527344 1.97802734 C14.5183187 3.44638788 16.63412205 4.91072461 18.75 6.375 C19.47960937 6.88289063 20.20921875 7.39078125 20.9609375 7.9140625 C21.66992188 8.40390625 22.37890625 8.89375 23.109375 9.3984375 C23.75874023 9.84880371 24.40810547 10.29916992 25.07714844 10.76318359 C26.99572113 11.99724774 28.94219378 13.01913906 31 14 C31 14.66 31 15.32 31 16 C32.32 16.66 33.64 17.32 35 18 C32 19 32 19 29.7578125 18.03125 C28.88898438 17.5259375 28.02015625 17.020625 27.125 16.5 C26.15691406 15.94828125 25.18882812 15.3965625 24.19140625 14.828125 C23.13824219 14.22484375 22.08507812 13.6215625 21 13 C18.69126869 11.74305292 16.37876844 10.49300313 14.0625 9.25 C13.00160156 8.67765625 11.94070313 8.1053125 10.84765625 7.515625 C8.57991304 6.30865056 6.30519291 5.13315507 4 4 C4 3.34 4 2.68 4 2 C2.68 1.67 1.36 1.34 0 1 C0 0.67 0 0.34 0 0 Z " fill="#50606D" transform="translate(380,276)"/>
<path d="M0 0 C4.70073498 2.54623145 8.91066536 5.34359043 13.1328125 8.62109375 C15.11726286 10.15355107 15.11726286 10.15355107 18 11.625 C18.66 12.07875 19.32 12.5325 20 13 C20 14.32 20 15.64 20 17 C19.34 16.731875 18.68 16.46375 18 16.1875 C16.3902833 15.55032047 14.77452104 14.92452587 13.1328125 14.375 C8.04364378 12.63240526 4.26247565 10.28565832 0 7 C0.2784375 6.1028125 0.2784375 6.1028125 0.5625 5.1875 C1.22093687 2.83591238 1.22093687 2.83591238 0 0 Z " fill="#233E51" transform="translate(370,263)"/>
<path d="M0 0 C0.75732422 0.00644531 1.51464844 0.01289062 2.29492188 0.01953125 C3.47344727 0.04466797 3.47344727 0.04466797 4.67578125 0.0703125 C5.47306641 0.07933594 6.27035156 0.08835937 7.09179688 0.09765625 C9.05742025 0.12119665 11.022889 0.15706703 12.98828125 0.1953125 C13.31828125 0.8553125 13.64828125 1.5153125 13.98828125 2.1953125 C13.65828125 3.1853125 13.32828125 4.1753125 12.98828125 5.1953125 C4.40828125 5.5253125 -4.17171875 5.8553125 -13.01171875 6.1953125 C-13.34171875 5.5353125 -13.67171875 4.8753125 -14.01171875 4.1953125 C-12.91859375 3.9065625 -11.82546875 3.6178125 -10.69921875 3.3203125 C-6.65590153 2.08675809 -4.25532347 -0.06398983 0 0 Z " fill="#0B3846" transform="translate(302.01171875,75.8046875)"/>
<path d="M0 0 C0.33 0 0.66 0 1 0 C1 1.65 1 3.3 1 5 C2.65 5 4.3 5 6 5 C6 3.35 6 1.7 6 0 C6.33 0 6.66 0 7 0 C7 2.31 7 4.62 7 7 C4.36 7 1.72 7 -1 7 C-1 6.01 -1 5.02 -1 4 C-24.76 4 -48.52 4 -73 4 C-73 3.67 -73 3.34 -73 3 C-48.91 3 -24.82 3 0 3 C0 2.01 0 1.02 0 0 Z " fill="#494949" transform="translate(493,434)"/>
<path d="M0 0 C0 0.66 0 1.32 0 2 C1.32 2.66 2.64 3.32 4 4 C-5.41002278 8.59225513 -5.41002278 8.59225513 -10 8 C-10 8.66 -10 9.32 -10 10 C-13.3 10.66 -16.6 11.32 -20 12 C-18.66099451 7.98298353 -16.89067282 7.49314819 -13.25 5.4375 C-12.20328125 4.83808594 -11.1565625 4.23867187 -10.078125 3.62109375 C-3.20240964 0 -3.20240964 0 0 0 Z " fill="#475B6A" transform="translate(240,231)"/>
<path d="M0 0 C2.60423895 1.43682149 2.96246208 3.23737675 3.8125 6 C3.1525 6 2.4925 6 1.8125 6 C2.1425 6.99 2.4725 7.98 2.8125 9 C-0.58370731 11.08997373 -3.23913095 11.2632246 -7.1875 11 C-7.5175 10.67 -7.8475 10.34 -8.1875 10 C-8.0625 6.625 -8.0625 6.625 -7.1875 3 C-4.71495524 0.86158291 -3.28039151 0 0 0 Z " fill="#F7F7F7" transform="translate(204.1875,435)"/>
<path d="M0 0 C0.99 0.33 1.98 0.66 3 1 C3 1.99 3 2.98 3 4 C3.66 4 4.32 4 5 4 C3.49860488 8.20390632 0.82724957 9.89110738 -3 12 C-3.99 11.67 -4.98 11.34 -6 11 C-5.75579333 6.76708435 -5.598306 4.62979579 -2.625 1.5 C-1.75875 1.005 -0.8925 0.51 0 0 Z " fill="#D9D9D9" transform="translate(351,433)"/>
<path d="M0 0 C2.68243901 0.38320557 4.09801411 1.07152381 6.3125 2.6875 C8 5 8 5 7.75 8.25 C7.5025 9.1575 7.255 10.065 7 11 C8.65 11.33 10.3 11.66 12 12 C12.33 13.32 12.66 14.64 13 16 C11.66666667 15.33333333 10.33333333 14.66666667 9 14 C8.278125 13.71125 7.55625 13.4225 6.8125 13.125 C5 12 5 12 4.25 9.875 C4.12625 8.946875 4.12625 8.946875 4 8 C2.68 7.67 1.36 7.34 0 7 C0.33 6.67 0.66 6.34 1 6 C0.01 5.01 -0.98 4.02 -2 3 C-1.34 2.01 -0.68 1.02 0 0 Z " fill="#1C4E5C" transform="translate(510,276)"/>
<path d="M0 0 C4.875 1.75 4.875 1.75 6 4 C5.505 4.45375 5.01 4.9075 4.5 5.375 C2.77390663 6.87635519 2.77390663 6.87635519 3 9 C3.99 9.33 4.98 9.66 6 10 C9 13.44444444 9 13.44444444 9 16 C3.77073595 14.52926948 -0.41637993 10.99266851 -4 7 C-4 4 -4 4 -2 1.8125 C-1.34 1.214375 -0.68 0.61625 0 0 Z " fill="#275869" transform="translate(506,272)"/>
<path d="M0 0 C0.66 0 1.32 0 2 0 C0.79618552 2.49361571 -0.45428722 4.68143083 -2 7 C-1.44570313 6.566875 -0.89140625 6.13375 -0.3203125 5.6875 C0.40414063 5.130625 1.12859375 4.57375 1.875 4 C2.59429687 3.443125 3.31359375 2.88625 4.0546875 2.3125 C6 1 6 1 8 1 C6.56387535 3.91214165 5.0615021 6.77811507 3.5 9.625 C3.0771875 10.40101563 2.654375 11.17703125 2.21875 11.9765625 C1 14 1 14 -1 16 C-3.625 15.625 -3.625 15.625 -6 15 C-5.67 14.34 -5.34 13.68 -5 13 C-2.4375 12.375 -2.4375 12.375 0 12 C0.33 10.68 0.66 9.36 1 8 C-0.65 8.66 -2.3 9.32 -4 10 C-4.8125 8.375 -4.8125 8.375 -5 6 C-2.6875 2.75 -2.6875 2.75 0 0 Z " fill="#7D7D7D" transform="translate(374,434)"/>
<path d="M0 0 C0.99 0.33 1.98 0.66 3 1 C2.89045592 4.62564187 2.7597504 8.25021431 2.625 11.875 C2.5940625 12.90753906 2.563125 13.94007813 2.53125 15.00390625 C2.49257812 15.99003906 2.45390625 16.97617188 2.4140625 17.9921875 C2.3826416 18.90339355 2.3512207 19.81459961 2.31884766 20.75341797 C2 23 2 23 0 25 C-1.83036568 23.16963432 -1.13243544 20.64385603 -1.13671875 18.2109375 C-1.13285156 17.44007813 -1.12898437 16.66921875 -1.125 15.875 C-1.13080078 14.75351563 -1.13080078 14.75351563 -1.13671875 13.609375 C-1.12863808 8.97107162 -0.76455296 4.57518202 0 0 Z " fill="#082E3C" transform="translate(244,126)"/>
<path d="M0 0 C5.59322034 2.31024318 5.59322034 2.31024318 7.4375 5.4375 C8.01980572 8.09022605 7.93297997 9.48095407 7 12 C3.50376447 10.64175023 0.11682003 9.15316912 -3.25 7.5 C-4.55710937 6.86578125 -4.55710937 6.86578125 -5.890625 6.21875 C-8 5 -8 5 -9 3 C-6.69 3.66 -4.38 4.32 -2 5 C-2 5.66 -2 6.32 -2 7 C-1.01 7 -0.02 7 1 7 C1.33 5.68 1.66 4.36 2 3 C1.34 3 0.68 3 0 3 C0 2.01 0 1.02 0 0 Z " fill="#294A5B" transform="translate(364,259)"/>
<path d="M0 0 C0.66 0 1.32 0 2 0 C3.20183475 2.57750095 4.38656886 5.16071162 5.5625 7.75 C5.90474609 8.47960937 6.24699219 9.20921875 6.59960938 9.9609375 C6.91865234 10.66992188 7.23769531 11.37890625 7.56640625 12.109375 C8.01415405 13.08342285 8.01415405 13.08342285 8.47094727 14.07714844 C9.10866223 16.39493481 8.75542816 17.74904303 8 20 C1.31394401 13.58684425 1.31394401 13.58684425 0.5703125 9.828125 C0.62155742 7.88081809 0.80616864 5.93831361 1 4 C0.58268982 1.64470719 0.58268982 1.64470719 0 0 Z " fill="#1F4354" transform="translate(411,250)"/>
<path d="M0 0 C-0.583844 3.92511991 -1.76510024 6.73512799 -3.8125 10.125 C-4.31394531 10.97320312 -4.81539062 11.82140625 -5.33203125 12.6953125 C-7.01357096 15.01875144 -8.62382549 16.42275619 -11 18 C-9.58550246 13.88509805 -7.49064734 10.48128408 -5.12109375 6.8671875 C-3.84348324 4.89250091 -3.84348324 4.89250091 -3 2 C-5.99152582 2.77479736 -5.99152582 2.77479736 -9 4 C-9.33 4.99 -9.66 5.98 -10 7 C-10.66 7 -11.32 7 -12 7 C-11.75 4.625 -11.75 4.625 -11 2 C-7.7044247 -0.66181082 -4.06660119 -0.15640774 0 0 Z " fill="#393939" transform="translate(223,422)"/>
<path d="M0 0 C0.30192308 7.85 0.30192308 7.85 -2 11 C-2.99 11.33 -3.98 11.66 -5 12 C-5.33 12.66 -5.66 13.32 -6 14 C-6.99 14 -7.98 14 -9 14 C-8 11 -8 11 -7 9 C-6.71125 7.845 -6.4225 6.69 -6.125 5.5 C-4.95869017 1.87148052 -4.11015531 0 0 0 Z " fill="#1F4151" transform="translate(258,100)"/>
<path d="M0 0 C0.99 0.33 1.98 0.66 3 1 C2.01 4.3 1.02 7.6 0 11 C-1.65 11.33 -3.3 11.66 -5 12 C-5.875 9.375 -5.875 9.375 -6 6 C-4.28397113 3.65564056 -2.24331907 1.8336695 0 0 Z " fill="#929292" transform="translate(404,432)"/>
<path d="M0 0 C0.66 0 1.32 0 2 0 C5.57142857 7.28571429 5.57142857 7.28571429 4 12 C2.68 12.33 1.36 12.66 0 13 C-1.80017973 8.55249714 -2.19432474 5.66872399 -1 1 C-0.67 0.67 -0.34 0.34 0 0 Z " fill="#113B4A" transform="translate(247,150)"/>
<path d="M0 0 C0.3125 2.6875 0.3125 2.6875 0 6 C-2.3125 8.875 -2.3125 8.875 -5 11 C-5.99 11 -6.98 11 -8 11 C-7.51282051 4.66666667 -7.51282051 4.66666667 -5.125 1.5625 C-3 0 -3 0 0 0 Z " fill="#BBBBBB" transform="translate(242,433)"/>
<path d="M0 0 C0.33 0.99 0.66 1.98 1 3 C-1.69372166 7.85686177 -5.28418897 11.53252759 -9.25 15.375 C-9.80429688 15.92027344 -10.35859375 16.46554687 -10.9296875 17.02734375 C-12.28188731 18.35622977 -13.6403035 19.67878548 -15 21 C-15.66 20.67 -16.32 20.34 -17 20 C-16.443125 19.39414062 -15.88625 18.78828125 -15.3125 18.1640625 C-9.96200371 12.28936219 -4.89008959 6.26251255 0 0 Z " fill="#D5E3E7" transform="translate(197,254)"/>
<path d="M0 0 C0.66 0 1.32 0 2 0 C1.67 1.32 1.34 2.64 1 4 C1.99 3.67 2.98 3.34 4 3 C3.690625 3.763125 3.38125 4.52625 3.0625 5.3125 C2.32106407 7.18789677 1.63771783 9.08684652 1 11 C2.423125 10.2884375 2.423125 10.2884375 3.875 9.5625 C5.58333333 8.70833333 7.29166667 7.85416667 9 7 C7.63016497 10.16115776 7.0109362 10.9927092 4 13 C1.3125 12.625 1.3125 12.625 -1 12 C-0.67 10.02 -0.34 8.04 0 6 C-1.65 7.32 -3.3 8.64 -5 10 C-3.66749209 6.4124787 -2.169283 3.1635377 0 0 Z " fill="#6F6F6F" transform="translate(293,431)"/>
<path d="M0 0 C0.66 0 1.32 0 2 0 C0.66666667 2.66666667 -0.66666667 5.33333333 -2 8 C-0.85073734 7.04578192 0.29430541 6.08647955 1.4375 5.125 C2.07558594 4.59132813 2.71367187 4.05765625 3.37109375 3.5078125 C5.10805004 2.0777243 5.10805004 2.0777243 6 0 C6.66 0 7.32 0 8 0 C7.34938905 1.67299959 6.67966676 3.33859237 6 5 C5.79375 5.7425 5.5875 6.485 5.375 7.25 C3.60607154 9.5013635 2.65874649 9.39713073 -0.125 9.75 C-1.40375 9.8325 -2.6825 9.915 -4 10 C-4 8.02 -4 6.04 -4 4 C-3.34 4 -2.68 4 -2 4 C-1.34 2.68 -0.68 1.36 0 0 Z " fill="#5A5A5A" transform="translate(263,434)"/>
<path d="M0 0 C0.33 0.99 0.66 1.98 1 3 C1.433125 2.505 1.86625 2.01 2.3125 1.5 C4 0 4 0 7 0 C6.01 2.97 5.02 5.94 4 9 C3.34 9 2.68 9 2 9 C1.67 8.01 1.34 7.02 1 6 C0.54625 6.495 0.0925 6.99 -0.375 7.5 C-2 9 -2 9 -4 9 C-2.25 2.25 -2.25 2.25 0 0 Z " fill="#6A6A6A" transform="translate(321,434)"/>
<path d="M0 0 C1.67542976 0.28604898 3.34385343 0.61781233 5 1 C4.360625 1.474375 3.72125 1.94875 3.0625 2.4375 C-1.22656786 6.02631188 -5.08660872 10.00987556 -9 14 C-9.66 13.67 -10.32 13.34 -11 13 C-9.95125002 10.37812506 -9.35068687 9.20628639 -6.875 7.75 C-6.25625 7.5025 -5.6375 7.255 -5 7 C-5 6.34 -5 5.68 -5 5 C-4.34 5 -3.68 5 -3 5 C-2.690625 4.360625 -2.38125 3.72125 -2.0625 3.0625 C-1 1 -1 1 0 0 Z " fill="#2A616F" transform="translate(385,181)"/>
<path d="M0 0 C2.125 0.9375 2.125 0.9375 4 2 C3.63206382 4.66753731 3.18001672 5.81998328 1.25 7.75 C-1.37943983 9.21079991 -3.0374441 9.24687966 -6 9 C-5.625 7.0625 -5.625 7.0625 -5 5 C-4.34 4.67 -3.68 4.34 -3 4 C-2.67 3.01 -2.34 2.02 -2 1 C-1.34 0.67 -0.68 0.34 0 0 Z " fill="#11434D" transform="translate(76,288)"/>
<path d="M0 0 C0.66 0 1.32 0 2 0 C0.70970987 6.19339263 -1.9964167 10.15289443 -6 15 C-9.16115776 13.63016497 -9.9927092 13.0109362 -12 10 C-10.02 10.66 -8.04 11.32 -6 12 C-6 11.01 -6 10.02 -6 9 C-5.34 9 -4.68 9 -4 9 C-3.71125 8.071875 -3.4225 7.14375 -3.125 6.1875 C-2 3 -2 3 0 0 Z " fill="#2EABAA" transform="translate(346,149)"/>
<path d="M0 0 C2.97 0 5.94 0 9 0 C9 2.64 9 5.28 9 8 C8.34 7.34 7.68 6.68 7 6 C6.175 6 5.35 6 4.5 6 C3.675 6 2.85 6 2 6 C1.34 5.34 0.68 4.68 0 4 C0 2.68 0 1.36 0 0 Z " fill="#515151" transform="translate(492,433)"/>
<path d="M0 0 C2.97 0 5.94 0 9 0 C8.01 0.495 8.01 0.495 7 1 C7 2.65 7 4.3 7 6 C6.21625 5.95875 5.4325 5.9175 4.625 5.875 C1.83883881 5.71271266 1.83883881 5.71271266 0 8 C0 5.36 0 2.72 0 0 Z " fill="#989898" transform="translate(100,433)"/>
<path d="M0 0 C0.33 1.32 0.66 2.64 1 4 C0.01 4.33 -0.98 4.66 -2 5 C-2 5.66 -2 6.32 -2 7 C-1.01 7.66 -0.02 8.32 1 9 C-2.4352048 11.29013653 -3.985331 11.17842973 -8 11 C-5.9785845 6.42521756 -3.68006822 3.38168431 0 0 Z " fill="#245362" transform="translate(73,289)"/>
<path d="M0 0 C4.20458942 -0.08759561 6.09006824 0.16128029 9.24609375 3.0703125 C11.23502981 5.33223978 13.15097526 7.62268247 15 10 C14.67 10.66 14.34 11.32 14 12 C11.66372963 10.19117843 9.33092238 8.37818954 7 6.5625 C6.33226562 6.04623047 5.66453125 5.52996094 4.9765625 4.99804688 C3.29922866 3.68869954 1.64735006 2.34687677 0 1 C0 0.67 0 0.34 0 0 Z " fill="#7A8690" transform="translate(536,305)"/>
<path d="M0 0 C0.66 0.33 1.32 0.66 2 1 C2 1.99 2 2.98 2 4 C1.01 4 0.02 4 -1 4 C-1.66 10.93 -2.32 17.86 -3 25 C-3.33 25 -3.66 25 -4 25 C-4.02706445 22.10410348 -4.04687029 19.20846205 -4.0625 16.3125 C-4.07087891 15.49587891 -4.07925781 14.67925781 -4.08789062 13.83789062 C-4.1222388 5.35389082 -4.1222388 5.35389082 -3 2 C-2.01 1.34 -1.02 0.68 0 0 Z " fill="#2B5862" transform="translate(246,123)"/>
<path d="M0 0 C0.66 0.66 1.32 1.32 2 2 C-5.91183295 8.83294664 -5.91183295 8.83294664 -11.125 9.25 C-14 9 -14 9 -16 7 C-13.17999162 5.58999581 -10.40642297 5.62391619 -7.2890625 5.37890625 C-4.80331169 4.96744238 -3.11219733 4.37246302 -1 3 C-0.67 2.01 -0.34 1.02 0 0 Z " fill="#989898" transform="translate(211,439)"/>
<path d="M0 0 C0.6875 1.8125 0.6875 1.8125 1 4 C-0.4375 5.75 -0.4375 5.75 -2 7 C-1.01 7.33 -0.02 7.66 1 8 C-0.32 9.65 -1.64 11.3 -3 13 C-3 11.02 -3 9.04 -3 7 C-3.99 7.33 -4.98 7.66 -6 8 C-4.55746343 4.63408134 -2.66735273 2.48952921 0 0 Z " fill="#2F5264" transform="translate(261,93)"/>
<path d="M0 0 C0.66 0 1.32 0 2 0 C1.67 1.65 1.34 3.3 1 5 C2.65 5.33 4.3 5.66 6 6 C6.33 7.32 6.66 8.64 7 10 C5.66666667 9.33333333 4.33333333 8.66666667 3 8 C2.278125 7.71125 1.55625 7.4225 0.8125 7.125 C-1 6 -1 6 -1.875 4 C-1.91625 3.34 -1.9575 2.68 -2 2 C-1.34 1.34 -0.68 0.68 0 0 Z " fill="#0E3748" transform="translate(516,282)"/>
<path d="M0 0 C0.33 0 0.66 0 1 0 C1.8125 3.1875 1.8125 3.1875 2 7 C-0.3125 9.9375 -0.3125 9.9375 -3 12 C-3.66 12 -4.32 12 -5 12 C-3.68938409 7.76570244 -2.05643741 3.92592596 0 0 Z " fill="#3E5765" transform="translate(180,266)"/>
<path d="M0 0 C0.33 1.32 0.66 2.64 1 4 C-0.11375 4.5878125 -0.11375 4.5878125 -1.25 5.1875 C-4.12542217 6.87455562 -4.12542217 6.87455562 -6.0625 9.625 C-8.08638908 12.10589629 -8.89157277 12.66695423 -12 13 C-11.34 12.01 -10.68 11.02 -10 10 C-9.34 10 -8.68 10 -8 10 C-8 9.34 -8 8.68 -8 8 C-7.34 8 -6.68 8 -6 8 C-5.7525 7.4225 -5.505 6.845 -5.25 6.25 C-3.83316683 3.6997003 -2.12372463 1.98214299 0 0 Z " fill="#336273" transform="translate(135,226)"/>
<path d="M0 0 C1.1725131 0.95117134 2.33787015 1.91117009 3.5 2.875 C4.47453125 3.67550781 4.47453125 3.67550781 5.46875 4.4921875 C6.22671875 5.23855469 6.22671875 5.23855469 7 6 C7 6.66 7 7.32 7 8 C2.56909529 6.79157144 0.01887244 5.48331435 -3 2 C-2.01 2 -1.02 2 0 2 C0 1.34 0 0.68 0 0 Z " fill="#3D5663" transform="translate(533,298)"/>
<path d="M0 0 C0.33 0.66 0.66 1.32 1 2 C0.109375 4.05859375 0.109375 4.05859375 -1.25 6.4375 C-1.68828125 7.21996094 -2.1265625 8.00242188 -2.578125 8.80859375 C-3.89303702 10.83514771 -5.22427893 12.37573749 -7 14 C-7.99 13.67 -8.98 13.34 -10 13 C-9.16855469 11.96939453 -9.16855469 11.96939453 -8.3203125 10.91796875 C-7.59585938 10.01691406 -6.87140625 9.11585938 -6.125 8.1875 C-5.40570313 7.29417969 -4.68640625 6.40085938 -3.9453125 5.48046875 C-1.92059294 2.96429047 -1.92059294 2.96429047 0 0 Z " fill="#CEDDE1" transform="translate(217,228)"/>
<path d="M0 0 C0 0.66 0 1.32 0 2 C1.32 2.66 2.64 3.32 4 4 C2.54618103 4.69699552 1.08677047 5.38233866 -0.375 6.0625 C-1.18710938 6.44535156 -1.99921875 6.82820312 -2.8359375 7.22265625 C-3.55007812 7.47917969 -4.26421875 7.73570312 -5 8 C-5.66 7.67 -6.32 7.34 -7 7 C-5.68 6.34 -4.36 5.68 -3 5 C-3 4.34 -3 3.68 -3 3 C-4.65 3.33 -6.3 3.66 -8 4 C-6.4425489 0.88509781 -3.40085499 0 0 0 Z " fill="#6C7F8B" transform="translate(240,231)"/>
<path d="M0 0 C0.33 0.99 0.66 1.98 1 3 C-0.36328125 5.04296875 -0.36328125 5.04296875 -2.3125 7.1875 C-2.94800781 7.90292969 -3.58351563 8.61835938 -4.23828125 9.35546875 C-6 11 -6 11 -8 11 C-8 11.66 -8 12.32 -8 13 C-8.66 12.67 -9.32 12.34 -10 12 C-8.52149287 10.18696196 -7.04217625 8.37458402 -5.5625 6.5625 C-4.32693359 5.04849609 -4.32693359 5.04849609 -3.06640625 3.50390625 C-1 1 -1 1 0 0 Z " fill="#336578" transform="translate(271,139)"/>
<path d="M0 0 C0.7109375 1.7734375 0.7109375 1.7734375 1 4 C-0.3984375 5.8515625 -0.3984375 5.8515625 -2.375 7.625 C-5.07364855 10.01777659 -5.07364855 10.01777659 -7 13 C-7.66 13 -8.32 13 -9 13 C-7.50923566 9.7173068 -5.61379679 7.06922559 -3.375 4.25 C-2.74335938 3.45078125 -2.11171875 2.6515625 -1.4609375 1.828125 C-0.97882813 1.22484375 -0.49671875 0.6215625 0 0 Z " fill="#D5E5E9" transform="translate(238,202)"/>
<path d="M0 0 C0.33 0 0.66 0 1 0 C1 1.65 1 3.3 1 5 C2.65 5 4.3 5 6 5 C6 3.35 6 1.7 6 0 C6.66 0 7.32 0 8 0 C8 2.31 8 4.62 8 7 C5.36 7 2.72 7 0 7 C0 4.69 0 2.38 0 0 Z " fill="#161616" transform="translate(101,434)"/>
<path d="M0 0 C-0.33 0.66 -0.66 1.32 -1 2 C-1.763125 1.525625 -2.52625 1.05125 -3.3125 0.5625 C-7.89111612 -1.7764557 -12.9528922 -1.73956205 -18 -2 C-18 -2.33 -18 -2.66 -18 -3 C-10.46587142 -4.77273614 -6.42759377 -4.11366001 0 0 Z " fill="#B8EFEF" transform="translate(313,118)"/>
<path d="M0 0 C1.98 0.66 3.96 1.32 6 2 C6 2.66 6 3.32 6 4 C7.32 4.66 8.64 5.32 10 6 C7 7 7 7 4.73828125 6.00390625 C3.93777344 5.52824219 3.13726562 5.05257813 2.3125 4.5625 C1.50425781 4.08941406 0.69601562 3.61632812 -0.13671875 3.12890625 C-0.75160156 2.75636719 -1.36648438 2.38382812 -2 2 C-1.34 1.34 -0.68 0.68 0 0 Z " fill="#7E858F" transform="translate(405,288)"/>
<path d="M0 0 C0.66 0.33 1.32 0.66 2 1 C-4.92938497 9.81548975 -4.92938497 9.81548975 -11 11 C-7.81316569 6.66590534 -4.13621084 3.3810038 0 0 Z " fill="#C8DDE4" transform="translate(100,276)"/>
<path d="M0 0 C-4.75 3 -4.75 3 -7 3 C-7 3.66 -7 4.32 -7 5 C-8.65 5 -10.3 5 -12 5 C-11 2 -11 2 -9.2578125 1.015625 C-8.55398437 0.76296875 -7.85015625 0.5103125 -7.125 0.25 C-6.07699219 -0.14445313 -6.07699219 -0.14445313 -5.0078125 -0.546875 C-3 -1 -3 -1 0 0 Z " fill="#112F3F" transform="translate(251,229)"/>
<path d="M0 0 C0.99 0.33 1.98 0.66 3 1 C2.07038578 2.15224028 1.1309875 3.29659176 0.1875 4.4375 C-0.59560547 5.39462891 -0.59560547 5.39462891 -1.39453125 6.37109375 C-3 8 -3 8 -6 9 C-6 9.66 -6 10.32 -6 11 C-6.66 10.67 -7.32 10.34 -8 10 C-6.85500893 8.52018126 -5.708983 7.04116318 -4.5625 5.5625 C-3.60537109 4.32693359 -3.60537109 4.32693359 -2.62890625 3.06640625 C-1 1 -1 1 0 0 Z " fill="#CBDFE4" transform="translate(276,153)"/>
<path d="M0 0 C0.66 0.33 1.32 0.66 2 1 C-1.47643979 6.83545251 -1.47643979 6.83545251 -4.1875 7.6875 C-4.785625 7.790625 -5.38375 7.89375 -6 8 C-6.33 8.99 -6.66 9.98 -7 11 C-7.66 10.67 -8.32 10.34 -9 10 C-6.03 6.7 -3.06 3.4 0 0 Z " fill="#BFD6DB" transform="translate(268,94)"/>
<path d="M0 0 C1.12894876 0.93274109 2.25300876 1.87140122 3.375 2.8125 C4.00148438 3.33457031 4.62796875 3.85664063 5.2734375 4.39453125 C7 6 7 6 9 9 C7.68 9.33 6.36 9.66 5 10 C4.62875 9.0409375 4.62875 9.0409375 4.25 8.0625 C3.18437567 5.81258459 3.18437567 5.81258459 0.875 5.25 C0.25625 5.1675 -0.3625 5.085 -1 5 C-0.67 3.35 -0.34 1.7 0 0 Z " fill="#325C6C" transform="translate(518,282)"/>
<path d="M0 0 C0 0.99 0 1.98 0 3 C0.66 3 1.32 3 2 3 C1.67 4.32 1.34 5.64 1 7 C-2 7 -2 7 -3.6875 5.5 C-4.120625 5.005 -4.55375 4.51 -5 4 C-4.67 3.01 -4.34 2.02 -4 1 C-2 0 -2 0 0 0 Z " fill="#1A3F4D" transform="translate(364,259)"/>
<path d="M0 0 C0.33 0 0.66 0 1 0 C1 1.65 1 3.3 1 5 C2.65 5 4.3 5 6 5 C6 3.35 6 1.7 6 0 C6.33 0 6.66 0 7 0 C7 2.31 7 4.62 7 7 C4.36 7 1.72 7 -1 7 C-0.67 4.69 -0.34 2.38 0 0 Z " fill="#1E1E1E" transform="translate(493,434)"/>
<path d="M0 0 C0 1.65 0 3.3 0 5 C-1.98 5.99 -1.98 5.99 -4 7 C-4 5 -4 5 -3 4 C-5.0245738 5.93254772 -6.42105792 7.63158688 -8 10 C-7.7312159 6.05783322 -7.44655191 4.43510186 -4.5625 1.625 C-2 0 -2 0 0 0 Z " fill="#737373" transform="translate(353,433)"/>
<path d="M0 0 C-0.33 1.32 -0.66 2.64 -1 4 C-1 3.34 -1 2.68 -1 2 C-3.99152582 2.77479736 -3.99152582 2.77479736 -7 4 C-7.33 4.99 -7.66 5.98 -8 7 C-8.66 7 -9.32 7 -10 7 C-9.75 4.625 -9.75 4.625 -9 2 C-6.09557968 -0.17831524 -3.54875053 -0.19715281 0 0 Z " fill="#939393" transform="translate(221,422)"/>
<path d="M0 0 C3.48670834 1.1094072 6.77484237 2.26337666 10 4 C10.33 3.01 10.66 2.02 11 1 C11.66 1.66 12.32 2.32 13 3 C12.34 3 11.68 3 11 3 C11.33 4.32 11.66 5.64 12 7 C9.07120629 6.37240135 6.63904371 5.41377341 4 4 C4 3.34 4 2.68 4 2 C2.68 1.67 1.36 1.34 0 1 C0 0.67 0 0.34 0 0 Z " fill="#5F7788" transform="translate(380,276)"/>
<path d="M0 0 C0 3.15084005 -0.45473667 4.33871316 -2 7 C-2.66 7.66 -3.32 8.32 -4 9 C-5.32 8.67 -6.64 8.34 -8 8 C-5.36 5.36 -2.72 2.72 0 0 Z " fill="#356474" transform="translate(114,247)"/>
<path d="M0 0 C2 0 2 0 4 1.9375 C4.99 2.9584375 4.99 2.9584375 6 4 C6.66 4.33 7.32 4.66 8 5 C8 5.99 8 6.98 8 8 C6.68 7.67 5.36 7.34 4 7 C4 6.34 4 5.68 4 5 C2.68 4.67 1.36 4.34 0 4 C0 2.68 0 1.36 0 0 Z " fill="#245964" transform="translate(406,194)"/>
<path d="M0 0 C0 0.99 0 1.98 0 3 C1.32 3.66 2.64 4.32 4 5 C1.525 6.485 1.525 6.485 -1 8 C-1.66 7.34 -2.32 6.68 -3 6 C-3.66 5.67 -4.32 5.34 -5 5 C-3.35 3.35 -1.7 1.7 0 0 Z " fill="#335968" transform="translate(66,296)"/>
<path d="M0 0 C4.13333333 6.2 4.13333333 6.2 3.625 9.25 C3.41875 9.8275 3.2125 10.405 3 11 C1.35 9.02 -0.3 7.04 -2 5 C-1.34 4.67 -0.68 4.34 0 4 C0 2.68 0 1.36 0 0 Z " fill="#5A6E7C" transform="translate(416,259)"/>
<path d="M0 0 C1.4606285 2.64738916 2 3.89448334 2 7 C0.6875 8.6875 0.6875 8.6875 -1 10 C-1.99 10 -2.98 10 -4 10 C-3 7 -3 7 -2 5 C-1.32650839 3.33607955 -0.6590841 1.66967972 0 0 Z " fill="#0E2E41" transform="translate(253,104)"/>
<path d="M0 0 C0.66 0 1.32 0 2 0 C2.66 1.32 3.32 2.64 4 4 C2.37660195 5.70884005 0.70680947 7.37446717 -1 9 C-1.66 9 -2.32 9 -3 9 C-2.5359375 7.88625 -2.5359375 7.88625 -2.0625 6.75 C-1.1905075 4.49307824 -0.52332993 2.3549847 0 0 Z " fill="#E8E8E8" transform="translate(264,433)"/>
<path d="M0 0 C-0.33 1.32 -0.66 2.64 -1 4 C-1.99 3.67 -2.98 3.34 -4 3 C-4.28875 3.598125 -4.5775 4.19625 -4.875 4.8125 C-6 7 -6 7 -8 10 C-7.67895459 6.46850054 -7.34914783 4.44225392 -5.125 1.625 C-3 0 -3 0 0 0 Z " fill="#3E3E3E" transform="translate(242,433)"/>
<path d="M0 0 C0.99 0.33 1.98 0.66 3 1 C1.75023244 4.65316671 1.32901247 5.78065836 -2 8 C-2 5.69 -2 3.38 -2 1 C-1.34 0.67 -0.68 0.34 0 0 Z " fill="#123849" transform="translate(183,264)"/>
<path d="M0 0 C0.33 0.66 0.66 1.32 1 2 C0.07421875 3.9453125 0.07421875 3.9453125 -1.3125 6.125 C-1.98732422 7.21167969 -1.98732422 7.21167969 -2.67578125 8.3203125 C-3.11277344 8.87460938 -3.54976562 9.42890625 -4 10 C-4.66 10 -5.32 10 -6 10 C-6 10.66 -6 11.32 -6 12 C-6.66 11.67 -7.32 11.34 -8 11 C-5.36 7.37 -2.72 3.74 0 0 Z " fill="#CBDFE5" transform="translate(252,183)"/>
<path d="M0 0 C-0.33 0.66 -0.66 1.32 -1 2 C-3.28515625 2.4140625 -3.28515625 2.4140625 -6.0625 2.625 C-7.44115234 2.73714844 -7.44115234 2.73714844 -8.84765625 2.8515625 C-9.55792969 2.90054688 -10.26820313 2.94953125 -11 3 C-11.33 2.34 -11.66 1.68 -12 1 C-10.56496445 0.63597631 -9.12683494 0.28413409 -7.6875 -0.0625 C-6.88699219 -0.25972656 -6.08648437 -0.45695312 -5.26171875 -0.66015625 C-3 -1 -3 -1 0 0 Z " fill="#0A2A37" transform="translate(300,79)"/>
<path d="M0 0 C0.66 0.33 1.32 0.66 2 1 C1.09515208 2.15518918 0.1755794 3.29885406 -0.75 4.4375 C-1.26046875 5.07558594 -1.7709375 5.71367187 -2.296875 6.37109375 C-4.19667629 8.18810554 -5.43586908 8.60423197 -8 9 C-7.04270084 7.87411986 -6.08412105 6.7493285 -5.125 5.625 C-4.59132812 4.99851563 -4.05765625 4.37203125 -3.5078125 3.7265625 C-2.38567993 2.44163349 -1.20628025 1.20628025 0 0 Z " fill="#CFE0E4" transform="translate(176,223)"/>
<path d="M0 0 C0.66 0.99 1.32 1.98 2 3 C-2.18461538 7.92307692 -2.18461538 7.92307692 -6.3125 8.3125 C-7.6428125 8.1578125 -7.6428125 8.1578125 -9 8 C-8.443125 7.79375 -7.88625 7.5875 -7.3125 7.375 C-4.07498698 5.44999226 -2.31768859 2.96149098 0 0 Z " fill="#3F6E7E" transform="translate(235,181)"/>
<path d="M0 0 C0 0.66 0 1.32 0 2 C-0.99 2 -1.98 2 -3 2 C-3.33 3.32 -3.66 4.64 -4 6 C-5.65 6.33 -7.3 6.66 -9 7 C-8.07347299 5.82460004 -7.13336613 4.65989423 -6.1875 3.5 C-5.66542969 2.8503125 -5.14335937 2.200625 -4.60546875 1.53125 C-3 0 -3 0 0 0 Z " fill="#366A74" transform="translate(285,127)"/>
<path d="M0 0 C0 3 0 3 -1.6875 4.75 C-4 6 -4 6 -6.75 5.6875 C-7.4925 5.460625 -8.235 5.23375 -9 5 C-8.67 3.68 -8.34 2.36 -8 1 C-7.67 1.66 -7.34 2.32 -7 3 C-3.06924356 2.42547254 -3.06924356 2.42547254 0 0 Z " fill="#A7A7A7" transform="translate(301,438)"/>
<path d="M0 0 C0 0.66 0 1.32 0 2 C-0.9590625 2.1546875 -0.9590625 2.1546875 -1.9375 2.3125 C-2.618125 2.539375 -3.29875 2.76625 -4 3 C-4.33 3.99 -4.66 4.98 -5 6 C-6.32 6 -7.64 6 -9 6 C-6.97377245 1.32409027 -5.29661848 0 0 0 Z " fill="#074751" transform="translate(106,269)"/>
<path d="M0 0 C-1.43429001 0.67354499 -2.87257057 1.33859701 -4.3125 2 C-5.51326172 2.556875 -5.51326172 2.556875 -6.73828125 3.125 C-9 4 -9 4 -12 4 C-12 3.34 -12 2.68 -12 2 C-10.75579353 1.4654744 -9.50429064 0.94791389 -8.25 0.4375 C-7.55390625 0.14746094 -6.8578125 -0.14257812 -6.140625 -0.44140625 C-3.69987216 -1.07831803 -2.3596345 -0.80248831 0 0 Z " fill="#355967" transform="translate(256,230)"/>
<path d="M0 0 C1.67542976 0.28604898 3.34385343 0.61781233 5 1 C1.71195019 3.91227269 -0.59885603 5.49701212 -5 6 C-4.34 5.67 -3.68 5.34 -3 5 C-2.30062468 3.68352881 -1.63270867 2.34977849 -1 1 C-0.67 0.67 -0.34 0.34 0 0 Z " fill="#437180" transform="translate(385,181)"/>
<path d="M0 0 C0.66 0 1.32 0 2 0 C3.42944945 2.35438733 4.08661261 3.48032433 3.625 6.25 C3.41875 6.8275 3.2125 7.405 3 8 C0.9375 6.25 0.9375 6.25 -1 4 C-0.75 1.75 -0.75 1.75 0 0 Z " fill="#2A5661" transform="translate(347,166)"/>
<path d="M0 0 C0.33 0.99 0.66 1.98 1 3 C3.01508358 3.73323796 3.01508358 3.73323796 5 4 C5.33 5.32 5.66 6.64 6 8 C2.08597051 6.73058503 0.20927127 5.48832306 -2 2 C-1.34 2 -0.68 2 0 2 C0 1.34 0 0.68 0 0 Z " fill="#2A5E6F" transform="translate(494,268)"/>
<path d="M0 0 C2.31 0.33 4.62 0.66 7 1 C7.33 1.99 7.66 2.98 8 4 C5.69 3.67 3.38 3.34 1 3 C0.67 2.01 0.34 1.02 0 0 Z " fill="#133C4C" transform="translate(339,251)"/>
<path d="M0 0 C2.475 0.495 2.475 0.495 5 1 C4.1875 2.9375 4.1875 2.9375 3 5 C2.01 5.33 1.02 5.66 0 6 C0 4.02 0 2.04 0 0 Z " fill="#0F4252" transform="translate(150,240)"/>
<path d="M0 0 C3.125 -0.1875 3.125 -0.1875 6 0 C2.87511433 2.52394612 -0.31314387 4.39701907 -4 6 C-4.66 5.67 -5.32 5.34 -6 5 C-5.38125 4.731875 -4.7625 4.46375 -4.125 4.1875 C-1.7004767 3.04443152 -1.7004767 3.04443152 0 0 Z " fill="#A5BCC2" transform="translate(264,216)"/>
<path d="M0 0 C0.58265625 0.23589844 1.1653125 0.47179687 1.765625 0.71484375 C0.940625 1.16859375 0.115625 1.62234375 -0.734375 2.08984375 C-1.971875 2.89421875 -1.971875 2.89421875 -3.234375 3.71484375 C-3.234375 4.37484375 -3.234375 5.03484375 -3.234375 5.71484375 C-4.224375 6.37484375 -5.214375 7.03484375 -6.234375 7.71484375 C-7.224375 7.38484375 -8.214375 7.05484375 -9.234375 6.71484375 C-8.16721428 5.51278911 -7.07999163 4.32852042 -5.984375 3.15234375 C-5.38109375 2.49105469 -4.7778125 1.82976562 -4.15625 1.1484375 C-2.234375 -0.28515625 -2.234375 -0.28515625 0 0 Z " fill="#45727F" transform="translate(209.234375,181.28515625)"/>
<path d="M0 0 C1 2 1 2 0.25 5.0625 C-0.1625 6.031875 -0.575 7.00125 -1 8 C-1.99 8.33 -2.98 8.66 -4 9 C-2.25 2.25 -2.25 2.25 0 0 Z " fill="#3D3D3D" transform="translate(321,434)"/>
<path d="M0 0 C0.66 0 1.32 0 2 0 C0.50079488 3.11373372 -1.08152136 6.12228205 -3 9 C-3.66 9 -4.32 9 -5 9 C-4.42676569 5.13066838 -2.61046448 2.84777943 0 0 Z " fill="#565656" transform="translate(374,434)"/>
<path d="M0 0 C2.16874252 0.50603992 3.99967627 0.99983813 6 2 C6 2.99 6 3.98 6 5 C4.35 4.67 2.7 4.34 1 4 C0.67 2.68 0.34 1.36 0 0 Z " fill="#283845" transform="translate(391,279)"/>
<path d="M0 0 C1.98 0.66 3.96 1.32 6 2 C6.33 3.65 6.66 5.3 7 7 C3.17053157 5.54744301 1.87949705 3.57104439 0 0 Z " fill="#B7D4DC" transform="translate(504,267)"/>
<path d="M0 0 C1.65 0 3.3 0 5 0 C5 1.32 5 2.64 5 4 C3.35 4 1.7 4 0 4 C0 2.68 0 1.36 0 0 Z " fill="#CDCDCD" transform="translate(494,435)"/>
<path d="M0 0 C0.33 0.99 0.66 1.98 1 3 C-1.35277269 5.72426311 -3.62496331 6.8141763 -7 8 C-6.02133662 6.85373678 -5.04205413 5.70800212 -4.0625 4.5625 C-3.51722656 3.92441406 -2.97195312 3.28632813 -2.41015625 2.62890625 C-1.63204305 1.73008851 -0.84063472 0.84063472 0 0 Z " fill="#DCEDF0" transform="translate(141,238)"/>
<path d="M0 0 C4.41889613 1.35021826 6.34345343 3.26115668 9 7 C7.35 6.67 5.7 6.34 4 6 C4 5.01 4 4.02 4 3 C2.68 2.67 1.36 2.34 0 2 C0 1.34 0 0.68 0 0 Z " fill="#2EADB6" transform="translate(337,125)"/>
<path d="M0 0 C0 0.99 0 1.98 0 3 C-2.8125 5.25 -2.8125 5.25 -6 7 C-6.99 6.67 -7.98 6.34 -9 6 C-6.59027489 3.59027489 -4.04587368 2.49053393 -1 1 C-0.67 0.67 -0.34 0.34 0 0 Z " fill="#B6B6B6" transform="translate(354,438)"/>
<path d="M0 0 C2.475 0.495 2.475 0.495 5 1 C5 2.32 5 3.64 5 5 C2.525 4.01 2.525 4.01 0 3 C0 2.01 0 1.02 0 0 Z " fill="#1B3748" transform="translate(385,275)"/>
<path d="M0 0 C6.875 3.75 6.875 3.75 8 6 C5.6875 6.25 5.6875 6.25 3 6 C1.02389614 3.95575462 0 2.8823175 0 0 Z " fill="#284B5E" transform="translate(370,263)"/>
<path d="M0 0 C-3.44450737 2.29633824 -5.93812283 2.54016485 -10 3 C-9.67 2.01 -9.34 1.02 -9 0 C-5.93109813 -1.53445094 -3.29905734 -0.54984289 0 0 Z " fill="#83919B" transform="translate(230,240)"/>
<path d="M0 0 C0.33 0.66 0.66 1.32 1 2 C-0.25 4.625 -0.25 4.625 -2 7 C-2.99 7 -3.98 7 -5 7 C-3.70700306 4.11562221 -2.34058637 2.12780579 0 0 Z " fill="#396D7E" transform="translate(245,170)"/>
<path d="M0 0 C0.66 0 1.32 0 2 0 C0.375 6.75 0.375 6.75 -3 9 C-2.5020163 5.26512223 -2.12508244 3.18762365 0 0 Z " fill="#1DA7AB" transform="translate(346,149)"/>
<path d="M0 0 C1.485 0.99 1.485 0.99 3 2 C2.67 4.31 2.34 6.62 2 9 C1.34 8.67 0.68 8.34 0 8 C0 5.36 0 2.72 0 0 Z " fill="#0C3946" transform="translate(243,142)"/>
<path d="M0 0 C1.65 0 3.3 0 5 0 C5.33 0.66 5.66 1.32 6 2 C6.99 2.33 7.98 2.66 9 3 C9 3.66 9 4.32 9 5 C2.25 3.375 2.25 3.375 0 0 Z " fill="#AAC1C7" transform="translate(330,79)"/>
<path d="M0 0 C-1.49097658 3.7952131 -3.75700849 5.61042731 -7 8 C-4.18918919 0 -4.18918919 0 0 0 Z " fill="#C7DFE0" transform="translate(168,342)"/>
<path d="M0 0 C-0.53625 0.2475 -1.0725 0.495 -1.625 0.75 C-4.56424252 2.29696975 -7.25754408 4.13014369 -10 6 C-7.83322503 -0.036016 -6.28508493 -0.13663228 0 0 Z " fill="#AFD2D4" transform="translate(364,317)"/>
<path d="M0 0 C0.66 0.99 1.32 1.98 2 3 C-2.75 6 -2.75 6 -5 6 C-3.63016497 2.83884224 -3.0109362 2.0072908 0 0 Z " fill="#6D7A84" transform="translate(51,311)"/>
<path d="M0 0 C0.66 0.33 1.32 0.66 2 1 C-1.17320782 4.53586014 -3.16743695 6.58578031 -8 7 C-5.4837822 4.39391727 -2.94865641 2.10618315 0 0 Z " fill="#C7D9E1" transform="translate(87,287)"/>
<path d="M0 0 C2.31 0.66 4.62 1.32 7 2 C7 2.66 7 3.32 7 4 C7.99 4.33 8.98 4.66 10 5 C5.2482602 4.56802365 3.07999946 3.67230705 0 0 Z " fill="#678896" transform="translate(355,262)"/>
<path d="M0 0 C1.32 0 2.64 0 4 0 C4 0.66 4 1.32 4 2 C4.99 1.67 5.98 1.34 7 1 C7.66 2.65 8.32 4.3 9 6 C6.03 4.35 3.06 2.7 0 1 C0 0.67 0 0.34 0 0 Z " fill="#C5D7DD" transform="translate(339,241)"/>
<path d="M0 0 C-1.44390925 3.80666984 -3.34952803 5.26602582 -7 7 C-7.66 6.67 -8.32 6.34 -9 6 C-7.8803014 4.99406757 -6.7540588 3.9954151 -5.625 3 C-4.68527344 2.1646875 -4.68527344 2.1646875 -3.7265625 1.3125 C-2 0 -2 0 0 0 Z " fill="#C7DDE3" transform="translate(198,207)"/>
<path d="M0 0 C0.33 0.99 0.66 1.98 1 3 C-0.65 3.66 -2.3 4.32 -4 5 C-4.33 4.01 -4.66 3.02 -5 2 C-3.35 1.34 -1.7 0.68 0 0 Z " fill="#193649" transform="translate(237,233)"/>
<path d="M0 0 C1.98 0.66 3.96 1.32 6 2 C6.33 3.65 6.66 5.3 7 7 C5.83040013 6.02433888 4.66438823 5.044375 3.5 4.0625 C2.8503125 3.51722656 2.200625 2.97195312 1.53125 2.41015625 C1.0259375 1.94480469 0.520625 1.47945312 0 1 C0 0.67 0 0.34 0 0 Z " fill="#C9E0E0" transform="translate(311,150)"/>
</svg>
